<svg width="43" height="18" viewBox="0 0 43 18" fill="none" xmlns="http://www.w3.org/2000/svg">
<g id="Group 46">
<path id="Vector" fill-rule="evenodd" clip-rule="evenodd" d="M21.657 4.54688H17.0703V14.5287H18.8943V11.1232H21.6015C23.9034 11.1232 25.5247 9.77415 25.5247 7.82687C25.5247 5.8796 23.9183 4.54688 21.657 4.54688ZM21.177 9.8196H18.8943V5.85051H21.177C22.762 5.85051 23.6644 6.58687 23.6644 7.84324C23.6644 9.09778 22.7428 9.82142 21.177 9.82142V9.8196ZM29.834 6.91778C27.8628 6.91778 26.3887 7.89051 26.3354 9.22506H27.9738C28.121 8.58142 28.8207 8.15778 29.7786 8.15778C30.9391 8.15778 31.6196 8.62869 31.6196 9.49051V10.0723L29.2431 10.1814C27.0714 10.3087 25.8724 11.0614 25.8724 12.3796C25.8724 13.7141 27.0884 14.6087 28.8762 14.5923C30.073 14.5923 31.178 14.0741 31.6559 13.2578H31.6943V14.5141H33.369V9.36506C33.369 7.89051 31.9887 6.91778 29.834 6.91778ZM31.6196 11.7051C31.6196 12.6941 30.6255 13.3996 29.337 13.4141C28.3236 13.4141 27.6602 13.0069 27.6602 12.3632C27.6602 11.6887 28.2874 11.3123 29.4842 11.2487L31.6196 11.1232V11.7051ZM38.5636 13.1323H38.5274L36.2618 6.99597H34.3631L37.5695 14.5305L37.4415 14.9214C37.145 15.7214 36.6671 16.0214 35.8372 16.0214C35.69 16.0214 35.4148 16.0214 35.2847 15.9905V17.2141C35.434 17.2305 35.8564 17.2614 35.9844 17.2451C37.7892 17.2451 38.6191 16.6632 39.3743 14.8596L42.6703 6.99597H40.8292L38.5636 13.1323Z" fill="#303C42"/>
<path id="Vector_2" fill-rule="evenodd" clip-rule="evenodd" d="M11.6044 7.72727C11.5831 5.88909 13.3687 5.00182 13.4497 4.96C12.4471 3.70727 10.8855 3.53636 10.3287 3.51636C8.99961 3.40364 7.73454 4.18364 7.06041 4.18364C6.38841 4.18364 5.34521 3.53455 4.24441 3.55273C2.79374 3.57091 1.46041 4.26909 0.713743 5.37455C-0.790257 7.60182 0.329743 10.8982 1.79534 12.7036C2.51214 13.5855 3.36761 14.58 4.48974 14.5436C5.57134 14.5073 5.97881 13.9491 7.28441 13.9491C8.59214 13.9491 8.95908 14.5436 10.1025 14.5255C11.2652 14.5073 12.0033 13.6255 12.7159 12.74C13.5372 11.7145 13.8764 10.7218 13.8956 10.6691C13.87 10.6618 11.6279 9.92909 11.6044 7.72727ZM10.3457 0C9.48601 0.0290909 8.44708 0.489091 7.83054 1.10182C7.27801 1.64727 6.79374 2.51818 6.92601 3.35273C7.88388 3.41636 8.86094 2.93818 9.45828 2.32364C10.0556 1.70727 10.4545 0.850909 10.3457 0Z" fill="#303C42"/>
</g>
</svg>
