<svg width="32" height="30" viewBox="0 0 32 30" fill="none" xmlns="http://www.w3.org/2000/svg">
<path d="M2.88281 5.92188V5.42188H2.38281V5.92188H2.88281ZM2.38281 24.9219C2.38281 25.198 2.60667 25.4219 2.88281 25.4219C3.15895 25.4219 3.38281 25.198 3.38281 24.9219H2.38281ZM2.88281 6.42188H26.8828V5.42188H2.88281V6.42188ZM3.38281 24.9219V5.92188H2.38281V24.9219H3.38281Z" fill="currentColor"/>
<path d="M1.38281 2.92187C1.38281 2.09345 2.05439 1.42188 2.88281 1.42188H26.8828C27.7112 1.42188 28.3828 2.09345 28.3828 2.92188V4.92188C28.3828 5.19802 28.159 5.42188 27.8828 5.42188H1.88281C1.60667 5.42188 1.38281 5.19802 1.38281 4.92188V2.92187Z" stroke="currentColor"/>
<path d="M10.5 9.5C10.5 8.94772 10.9477 8.5 11.5 8.5H18.5C19.0523 8.5 19.5 8.94772 19.5 9.5C19.5 10.0523 19.0523 10.5 18.5 10.5H11.5C10.9477 10.5 10.5 10.0523 10.5 9.5Z" stroke="currentColor"/>
<mask id="path-4-inside-1_1764_3714" fill="white">
<path d="M17.6713 14.9324C18.893 13.6045 20.5045 12.7643 22.2312 12.5551C23.958 12.3459 25.6931 12.7805 27.1411 13.785C28.5891 14.7894 29.6602 16.3015 30.1721 18.0636C30.6839 19.8257 30.6047 21.7288 29.9481 23.4486C29.2914 25.1685 28.0979 26.5986 26.5708 27.4953C25.0438 28.3921 23.2777 28.7 21.5735 28.3666C19.8694 28.0332 18.3325 27.0791 17.2249 25.6669C16.1172 24.2547 15.5073 22.4717 15.499 20.6218L16.5495 20.6049C16.5566 22.1958 17.0811 23.7291 18.0337 24.9436C18.9863 26.1581 20.308 26.9786 21.7736 27.2654C23.2392 27.5521 24.758 27.2873 26.0712 26.5161C27.3845 25.7449 28.4109 24.515 28.9757 23.0359C29.5404 21.5569 29.6085 19.9202 29.1683 18.4048C28.7281 16.8894 27.8069 15.589 26.5617 14.7252C25.3164 13.8614 23.8242 13.4876 22.3392 13.6675C20.8541 13.8474 19.4683 14.5699 18.4177 15.7119L17.6713 14.9324Z"/>
</mask>
<path d="M17.6713 14.9324C18.893 13.6045 20.5045 12.7643 22.2312 12.5551C23.958 12.3459 25.6931 12.7805 27.1411 13.785C28.5891 14.7894 29.6602 16.3015 30.1721 18.0636C30.6839 19.8257 30.6047 21.7288 29.9481 23.4486C29.2914 25.1685 28.0979 26.5986 26.5708 27.4953C25.0438 28.3921 23.2777 28.7 21.5735 28.3666C19.8694 28.0332 18.3325 27.0791 17.2249 25.6669C16.1172 24.2547 15.5073 22.4717 15.499 20.6218L16.5495 20.6049C16.5566 22.1958 17.0811 23.7291 18.0337 24.9436C18.9863 26.1581 20.308 26.9786 21.7736 27.2654C23.2392 27.5521 24.758 27.2873 26.0712 26.5161C27.3845 25.7449 28.4109 24.515 28.9757 23.0359C29.5404 21.5569 29.6085 19.9202 29.1683 18.4048C28.7281 16.8894 27.8069 15.589 26.5617 14.7252C25.3164 13.8614 23.8242 13.4876 22.3392 13.6675C20.8541 13.8474 19.4683 14.5699 18.4177 15.7119L17.6713 14.9324Z" stroke="currentColor" stroke-width="2" mask="url(#path-4-inside-1_1764_3714)"/>
<line x1="23" y1="16.5" x2="23" y2="21.5" stroke="currentColor"/>
<line x1="22.8536" y1="21.1464" x2="25.8536" y2="24.1464" stroke="currentColor"/>
<line x1="18" y1="12.5" x2="18" y2="16.5" stroke="currentColor"/>
<line x1="21.5" y1="16" x2="17.5" y2="16" stroke="currentColor"/>
<line x1="5.88281" y1="22.4219" x2="10.8828" y2="22.4219" stroke="currentColor"/>
<line x1="26.3828" y1="5.92188" x2="26.3828" y2="13.9219" stroke="currentColor"/>
<path d="M2.88281 24.9219C2.60667 24.9219 2.38281 25.1457 2.38281 25.4219C2.38281 25.698 2.60667 25.9219 2.88281 25.9219V24.9219ZM2.88281 25.9219H17.8828V24.9219H2.88281V25.9219Z" fill="currentColor"/>
</svg>
