<svg width="24" height="28" viewBox="0 0 24 28" fill="none" xmlns="http://www.w3.org/2000/svg">
<path d="M21.9016 0H2.09835C0.941309 0 0 0.785093 0 1.74999V26.25C0 27.215 0.941374 28 2.09835 28H21.9016C23.0587 28 24 27.2149 24 26.25V1.74999C23.9999 0.785038 23.0586 0 21.9016 0ZM22.9508 26.25C22.9508 26.7326 22.4802 27.125 21.9016 27.125H2.09835C1.5197 27.125 1.04914 26.7326 1.04914 26.25V1.74999C1.04914 1.26741 1.5197 0.874969 2.09835 0.874969H21.9016C22.4803 0.874969 22.9509 1.26741 22.9509 1.74999L22.9508 26.25Z" fill="currentColor"/>
<path d="M21.9016 0H2.09835C0.941309 0 0 0.785093 0 1.74999V26.25C0 27.215 0.941374 28 2.09835 28H21.9016C23.0587 28 24 27.2149 24 26.25V1.74999C23.9999 0.785038 23.0586 0 21.9016 0ZM22.9508 26.25C22.9508 26.7326 22.4802 27.125 21.9016 27.125H2.09835C1.5197 27.125 1.04914 26.7326 1.04914 26.25V1.74999C1.04914 1.26741 1.5197 0.874969 2.09835 0.874969H21.9016C22.4803 0.874969 22.9509 1.26741 22.9509 1.74999L22.9508 26.25Z" fill="black" fill-opacity="0.2"/>
<path d="M8.02191 11.4674C10.6721 11.4674 12.8903 9.68766 12.8903 7.40722C12.8903 5.17103 10.7064 3.35156 8.02191 3.35156C5.33468 3.35156 3.14844 5.17097 3.14844 7.40722C3.14844 9.67218 5.34642 11.4674 8.02191 11.4674ZM6.10178 10.1552C6.54695 9.63378 7.2474 9.31913 8.02191 9.31913C8.79426 9.31913 9.49327 9.63411 9.93785 10.1561C9.3632 10.4379 8.71214 10.5923 8.02191 10.5923C7.33307 10.5923 6.68056 10.4376 6.10178 10.1552ZM8.02191 4.22659C10.1277 4.22659 11.8411 5.6534 11.8411 7.40722C11.8411 8.24658 11.452 9.02762 10.7635 9.61863C10.1232 8.88578 9.12569 8.44411 8.02191 8.44411C6.91544 8.44411 5.91602 8.88589 5.27519 9.6189C4.58719 9.02877 4.19765 8.24718 4.19765 7.40716C4.19765 5.6534 5.91327 4.22659 8.02191 4.22659Z" fill="currentColor"/>
<path d="M8.02191 11.4674C10.6721 11.4674 12.8903 9.68766 12.8903 7.40722C12.8903 5.17103 10.7064 3.35156 8.02191 3.35156C5.33468 3.35156 3.14844 5.17097 3.14844 7.40722C3.14844 9.67218 5.34642 11.4674 8.02191 11.4674ZM6.10178 10.1552C6.54695 9.63378 7.2474 9.31913 8.02191 9.31913C8.79426 9.31913 9.49327 9.63411 9.93785 10.1561C9.3632 10.4379 8.71214 10.5923 8.02191 10.5923C7.33307 10.5923 6.68056 10.4376 6.10178 10.1552ZM8.02191 4.22659C10.1277 4.22659 11.8411 5.6534 11.8411 7.40722C11.8411 8.24658 11.452 9.02762 10.7635 9.61863C10.1232 8.88578 9.12569 8.44411 8.02191 8.44411C6.91544 8.44411 5.91602 8.88589 5.27519 9.6189C4.58719 9.02877 4.19765 8.24718 4.19765 7.40716C4.19765 5.6534 5.91327 4.22659 8.02191 4.22659Z" fill="black" fill-opacity="0.2"/>
<path d="M8.01935 8.17329C8.97096 8.17329 9.74527 7.52752 9.74527 6.7339C9.74527 5.94027 8.97096 5.2945 8.01935 5.2945C7.06775 5.2945 6.29344 5.94027 6.29344 6.7339C6.29344 7.52752 7.06775 8.17329 8.01935 8.17329ZM8.01935 6.16947C8.39257 6.16947 8.69607 6.42264 8.69607 6.73384C8.69607 7.04505 8.39251 7.29821 8.01935 7.29821C7.6462 7.29821 7.34264 7.04505 7.34264 6.73384C7.34258 6.41728 7.63971 6.16947 8.01935 6.16947ZM20.3328 4.88281H15.6141C15.3244 4.88281 15.0895 5.0787 15.0895 5.32032C15.0895 5.56195 15.3244 5.75784 15.6141 5.75784H20.3328C20.6226 5.75784 20.8575 5.56195 20.8575 5.32032C20.8575 5.0787 20.6226 4.88281 20.3328 4.88281ZM20.3328 6.97076H15.6141C15.3244 6.97076 15.0895 7.16665 15.0895 7.40827C15.0895 7.64989 15.3244 7.84578 15.6141 7.84578H20.3328C20.6226 7.84578 20.8575 7.64989 20.8575 7.40827C20.8575 7.16665 20.6226 6.97076 20.3328 6.97076ZM20.3328 9.05854H15.6141C15.3244 9.05854 15.0895 9.25443 15.0895 9.49605C15.0895 9.73768 15.3244 9.93357 15.6141 9.93357H20.3328C20.6226 9.93357 20.8575 9.73768 20.8575 9.49605C20.8575 9.25443 20.6226 9.05854 20.3328 9.05854ZM20.3328 14.3248H3.67304C3.38332 14.3248 3.14844 14.5207 3.14844 14.7623C3.14844 15.0039 3.38332 15.1998 3.67304 15.1998H20.3328C20.6226 15.1998 20.8575 15.0039 20.8575 14.7623C20.8575 14.5207 20.6226 14.3248 20.3328 14.3248ZM20.3328 17.4747H3.67304C3.38332 17.4747 3.14844 17.6705 3.14844 17.9122C3.14844 18.1538 3.38332 18.3497 3.67304 18.3497H20.3328C20.6226 18.3497 20.8575 18.1538 20.8575 17.9122C20.8575 17.6705 20.6226 17.4747 20.3328 17.4747ZM20.3328 20.6247H3.67304C3.38332 20.6247 3.14844 20.8206 3.14844 21.0622C3.14844 21.3038 3.38332 21.4997 3.67304 21.4997H20.3328C20.6226 21.4997 20.8575 21.3038 20.8575 21.0622C20.8575 20.8206 20.6226 20.6247 20.3328 20.6247ZM12.1085 23.7748H3.67304C3.38332 23.7748 3.14844 23.9707 3.14844 24.2123C3.14844 24.454 3.38332 24.6498 3.67304 24.6498H12.1085C12.3982 24.6498 12.6331 24.454 12.6331 24.2123C12.6331 23.9707 12.3982 23.7748 12.1085 23.7748Z" fill="currentColor"/>
<path d="M8.01935 8.17329C8.97096 8.17329 9.74527 7.52752 9.74527 6.7339C9.74527 5.94027 8.97096 5.2945 8.01935 5.2945C7.06775 5.2945 6.29344 5.94027 6.29344 6.7339C6.29344 7.52752 7.06775 8.17329 8.01935 8.17329ZM8.01935 6.16947C8.39257 6.16947 8.69607 6.42264 8.69607 6.73384C8.69607 7.04505 8.39251 7.29821 8.01935 7.29821C7.6462 7.29821 7.34264 7.04505 7.34264 6.73384C7.34258 6.41728 7.63971 6.16947 8.01935 6.16947ZM20.3328 4.88281H15.6141C15.3244 4.88281 15.0895 5.0787 15.0895 5.32032C15.0895 5.56195 15.3244 5.75784 15.6141 5.75784H20.3328C20.6226 5.75784 20.8575 5.56195 20.8575 5.32032C20.8575 5.0787 20.6226 4.88281 20.3328 4.88281ZM20.3328 6.97076H15.6141C15.3244 6.97076 15.0895 7.16665 15.0895 7.40827C15.0895 7.64989 15.3244 7.84578 15.6141 7.84578H20.3328C20.6226 7.84578 20.8575 7.64989 20.8575 7.40827C20.8575 7.16665 20.6226 6.97076 20.3328 6.97076ZM20.3328 9.05854H15.6141C15.3244 9.05854 15.0895 9.25443 15.0895 9.49605C15.0895 9.73768 15.3244 9.93357 15.6141 9.93357H20.3328C20.6226 9.93357 20.8575 9.73768 20.8575 9.49605C20.8575 9.25443 20.6226 9.05854 20.3328 9.05854ZM20.3328 14.3248H3.67304C3.38332 14.3248 3.14844 14.5207 3.14844 14.7623C3.14844 15.0039 3.38332 15.1998 3.67304 15.1998H20.3328C20.6226 15.1998 20.8575 15.0039 20.8575 14.7623C20.8575 14.5207 20.6226 14.3248 20.3328 14.3248ZM20.3328 17.4747H3.67304C3.38332 17.4747 3.14844 17.6705 3.14844 17.9122C3.14844 18.1538 3.38332 18.3497 3.67304 18.3497H20.3328C20.6226 18.3497 20.8575 18.1538 20.8575 17.9122C20.8575 17.6705 20.6226 17.4747 20.3328 17.4747ZM20.3328 20.6247H3.67304C3.38332 20.6247 3.14844 20.8206 3.14844 21.0622C3.14844 21.3038 3.38332 21.4997 3.67304 21.4997H20.3328C20.6226 21.4997 20.8575 21.3038 20.8575 21.0622C20.8575 20.8206 20.6226 20.6247 20.3328 20.6247ZM12.1085 23.7748H3.67304C3.38332 23.7748 3.14844 23.9707 3.14844 24.2123C3.14844 24.454 3.38332 24.6498 3.67304 24.6498H12.1085C12.3982 24.6498 12.6331 24.454 12.6331 24.2123C12.6331 23.9707 12.3982 23.7748 12.1085 23.7748Z" fill="black" fill-opacity="0.2"/>
</svg>
