<svg width="30" height="28" viewBox="0 0 30 28" fill="none" xmlns="http://www.w3.org/2000/svg">
<path d="M26.8409 3.29859C26.1568 2.56987 25.3445 1.9918 24.4504 1.5974C23.5563 1.203 22.598 1 21.6302 1C20.6625 1 19.7042 1.203 18.8101 1.5974C17.916 1.9918 17.1037 2.56987 16.4195 3.29859L14.9996 4.81023L13.5798 3.29859C12.1978 1.82732 10.3234 1.00076 8.36905 1.00076C6.41466 1.00076 4.54031 1.82732 3.15835 3.29859C1.77638 4.76986 1 6.76534 1 8.84603C1 10.9267 1.77638 12.9222 3.15835 14.3935L4.57823 15.9051L14.9996 27L25.4211 15.9051L26.8409 14.3935C27.5254 13.6651 28.0684 12.8003 28.4389 11.8484C28.8093 10.8966 29 9.87635 29 8.84603C29 7.81571 28.8093 6.79548 28.4389 5.84363C28.0684 4.89178 27.5254 4.02697 26.8409 3.29859Z" stroke="#B1B1B1" stroke-width="1.5" stroke-linecap="round" stroke-linejoin="round"/>
</svg>
