<svg width="30" height="28" viewBox="0 0 30 28" fill="none" xmlns="http://www.w3.org/2000/svg">
<g id="order history icon">
<g id="Vector">
<path d="M29.0206 19.0617L29.0206 19.0619C29.0243 19.1028 29.0281 19.1437 29.0308 19.185L29.0206 19.0617ZM29.0206 19.0617C28.8057 16.7638 27.5489 14.6986 25.6585 13.538C25.4383 13.403 25.2098 13.2801 24.9798 13.1737M29.0206 19.0617L29.4639 19.0102C29.2416 16.6318 27.9816 14.4958 26.0911 13.2371L25.9152 13.12L25.9149 13.1198L25.8682 13.0887V13.0804M24.9798 13.1737L25.1876 12.7261C25.1942 12.7293 25.2012 12.7327 25.2083 12.736L25.5237 12.8856M24.9798 13.1737C24.3552 12.8836 23.6947 12.6964 23.016 12.6173L25.1452 12.7055L25.171 12.718C25.1757 12.7203 25.1812 12.723 25.1871 12.7259L24.9798 13.1737ZM25.5237 12.8856C25.6401 12.9473 25.7552 13.0124 25.8682 13.0804M25.5237 12.8856L25.8682 13.0489M25.5237 12.8856C25.4204 12.8309 25.3161 12.7788 25.2112 12.7298L25.8682 13.0489M25.8682 13.0804V13.0489M25.8682 13.0804V13.0489M25.8682 13.0489L25.9224 13.0746V12.8209V12.2842V4.86083V4.36083H26.3682H27.0788M25.8682 13.0489L26.2155 0.53122M25.8682 13.0489V12.8209V12.2842V4.86083V4.36083V13.0489ZM27.0788 4.36083C27.0784 4.36811 27.0761 4.3711 27.0761 4.37111L27.0763 4.37091C27.0768 4.37029 27.0794 4.36779 27.085 4.36528C27.091 4.36258 27.0985 4.36083 27.1059 4.36083H27.0788ZM27.0788 4.36083C27.0788 4.36015 27.0788 4.35944 27.0788 4.35868V4.35653M27.0788 4.35653H27.133V3.85653V1.71133C27.133 1.15587 26.7571 0.651204 26.2155 0.53122M27.0788 4.35653H26.633H25.8953H1.68348H0.945776H0.5M27.0788 4.35653H0.5M26.2155 0.53122C26.1349 0.510742 26.0516 0.5 25.9672 0.5H1.6116C1.52702 0.5 1.44365 0.510781 1.36291 0.531331C1.44247 0.513665 1.52559 0.504304 1.6116 0.504304H25.9672C26.0531 0.504304 26.1361 0.513627 26.2155 0.53122ZM0.5 4.35653V4.35868C0.5 4.35944 0.50002 4.36015 0.500057 4.36083H1.21059H1.65637L0.5 4.35653ZM23.0609 12.1156C23.4337 12.1591 23.8013 12.2332 24.1611 12.3372C23.8054 12.236 23.4422 12.1636 23.0739 12.1206L23.0727 12.1205C22.8045 12.0899 22.5321 12.0739 22.2636 12.0739C21.6437 12.0739 21.0372 12.1549 20.4547 12.3111C21.0399 12.1504 21.6442 12.0696 22.2636 12.0696C22.5272 12.0696 22.7957 12.0849 23.0609 12.1156ZM16.2778 15.2877L16.2816 15.2834H17.3705H19.3424V15.2877H16.2778Z" fill="#31304D"/>
<path d="M29.0206 19.0617L29.0206 19.0619C29.0243 19.1028 29.0281 19.1437 29.0308 19.185L29.0206 19.0617ZM29.0206 19.0617C28.8057 16.7638 27.5489 14.6986 25.6585 13.538C25.4383 13.403 25.2098 13.2801 24.9798 13.1737M29.0206 19.0617L29.4639 19.0102C29.2416 16.6318 27.9816 14.4958 26.0911 13.2371L25.9152 13.12L25.9149 13.1198L25.8682 13.0887V13.0804M24.9798 13.1737L25.1876 12.7261C25.1942 12.7293 25.2012 12.7327 25.2083 12.736L25.5237 12.8856M24.9798 13.1737C24.3552 12.8836 23.6947 12.6964 23.016 12.6173L25.1452 12.7055L25.171 12.718C25.1757 12.7203 25.1812 12.723 25.1871 12.7259L24.9798 13.1737ZM25.5237 12.8856C25.6401 12.9473 25.7552 13.0124 25.8682 13.0804M25.5237 12.8856L25.8682 13.0489M25.5237 12.8856C25.4204 12.8309 25.3161 12.7788 25.2112 12.7298L25.8682 13.0489M25.8682 13.0804V13.0489M25.8682 13.0804V13.0489M25.8682 13.0489L25.9224 13.0746V12.8209V12.2842V4.86083V4.36083H26.3682H27.0788M25.8682 13.0489L26.2155 0.53122M25.8682 13.0489V12.8209V12.2842V4.86083V4.36083V13.0489ZM27.0788 4.36083C27.0784 4.36811 27.0761 4.3711 27.0761 4.37111L27.0763 4.37091C27.0768 4.37029 27.0794 4.36779 27.085 4.36528C27.091 4.36258 27.0985 4.36083 27.1059 4.36083H27.0788ZM27.0788 4.36083C27.0788 4.36015 27.0788 4.35944 27.0788 4.35868V4.35653M27.0788 4.35653H27.133V3.85653V1.71133C27.133 1.15587 26.7571 0.651204 26.2155 0.53122M27.0788 4.35653H26.633H25.8953H1.68348H0.945776H0.5M27.0788 4.35653H0.5M26.2155 0.53122C26.1349 0.510742 26.0516 0.5 25.9672 0.5H1.6116C1.52702 0.5 1.44365 0.510781 1.36291 0.531331C1.44247 0.513665 1.52559 0.504304 1.6116 0.504304H25.9672C26.0531 0.504304 26.1361 0.513627 26.2155 0.53122ZM0.5 4.35653V4.35868C0.5 4.35944 0.50002 4.36015 0.500057 4.36083H1.21059H1.65637L0.5 4.35653ZM23.0609 12.1156C23.4337 12.1591 23.8013 12.2332 24.1611 12.3372C23.8054 12.236 23.4422 12.1636 23.0739 12.1206L23.0727 12.1205C22.8045 12.0899 22.5321 12.0739 22.2636 12.0739C21.6437 12.0739 21.0372 12.1549 20.4547 12.3111C21.0399 12.1504 21.6442 12.0696 22.2636 12.0696C22.5272 12.0696 22.7957 12.0849 23.0609 12.1156ZM16.2778 15.2877L16.2816 15.2834H17.3705H19.3424V15.2877H16.2778Z" fill="black" fill-opacity="0.2"/>
<path d="M29.0206 19.0617L29.0206 19.0619C29.0243 19.1028 29.0281 19.1437 29.0308 19.185L29.0206 19.0617ZM29.0206 19.0617C28.8057 16.7638 27.5489 14.6986 25.6585 13.538C25.4383 13.403 25.2098 13.2801 24.9798 13.1737M29.0206 19.0617L29.4639 19.0102C29.2416 16.6318 27.9816 14.4958 26.0911 13.2371L25.9152 13.12L25.9149 13.1198L25.8682 13.0887V13.0804M24.9798 13.1737L25.1876 12.7261C25.1942 12.7293 25.2012 12.7327 25.2083 12.736L25.5237 12.8856M24.9798 13.1737C24.3552 12.8836 23.6947 12.6964 23.016 12.6173L25.1452 12.7055L25.171 12.718C25.1757 12.7203 25.1812 12.723 25.1871 12.7259L24.9798 13.1737ZM25.5237 12.8856C25.6401 12.9473 25.7552 13.0124 25.8682 13.0804M25.5237 12.8856L25.8682 13.0489M25.5237 12.8856C25.4204 12.8309 25.3161 12.7788 25.2112 12.7298L25.8682 13.0489M25.8682 13.0804V13.0489M25.8682 13.0804V13.0489M25.8682 13.0489L25.9224 13.0746V12.8209V12.2842V4.86083V4.36083H26.3682H27.0788M25.8682 13.0489L26.2155 0.53122M25.8682 13.0489V12.8209V12.2842V4.86083V4.36083V13.0489ZM27.0788 4.36083C27.0784 4.36811 27.0761 4.3711 27.0761 4.37111L27.0763 4.37091C27.0768 4.37029 27.0794 4.36779 27.085 4.36528C27.091 4.36258 27.0985 4.36083 27.1059 4.36083H27.0788ZM27.0788 4.36083C27.0788 4.36015 27.0788 4.35944 27.0788 4.35868V4.35653M27.0788 4.35653H27.133V3.85653V1.71133C27.133 1.15587 26.7571 0.651204 26.2155 0.53122M27.0788 4.35653H26.633H25.8953H1.68348H0.945776H0.5M27.0788 4.35653H0.5M26.2155 0.53122C26.1349 0.510742 26.0516 0.5 25.9672 0.5H1.6116C1.52702 0.5 1.44365 0.510781 1.36291 0.531331C1.44247 0.513665 1.52559 0.504304 1.6116 0.504304H25.9672C26.0531 0.504304 26.1361 0.513627 26.2155 0.53122ZM0.5 4.35653V4.35868C0.5 4.35944 0.50002 4.36015 0.500057 4.36083H1.21059H1.65637L0.5 4.35653ZM23.0609 12.1156C23.4337 12.1591 23.8013 12.2332 24.1611 12.3372C23.8054 12.236 23.4422 12.1636 23.0739 12.1206L23.0727 12.1205C22.8045 12.0899 22.5321 12.0739 22.2636 12.0739C21.6437 12.0739 21.0372 12.1549 20.4547 12.3111C21.0399 12.1504 21.6442 12.0696 22.2636 12.0696C22.5272 12.0696 22.7957 12.0849 23.0609 12.1156ZM16.2778 15.2877L16.2816 15.2834H17.3705H19.3424V15.2877H16.2778Z" stroke="#B1B1B1"/>
</g>
<g id="Vector_2">
<path d="M16.9281 6.92188C17.0091 6.92188 17.0891 6.9322 17.1666 6.95189C17.0903 6.93508 17.0106 6.92618 16.9281 6.92618H10.6481C10.5656 6.92618 10.4858 6.9351 10.4095 6.95193C10.487 6.93221 10.567 6.92188 10.6481 6.92188H16.9281ZM16.9281 9.25186C17.0106 9.25186 17.0903 9.24296 17.1666 9.22615C17.0891 9.24584 17.0091 9.25616 16.9281 9.25616H10.6481C10.567 9.25616 10.487 9.24583 10.4095 9.22611C10.4858 9.24294 10.5656 9.25186 10.6481 9.25186H16.9281Z" fill="#31304D"/>
<path d="M16.9281 6.92188C17.0091 6.92188 17.0891 6.9322 17.1666 6.95189C17.0903 6.93508 17.0106 6.92618 16.9281 6.92618H10.6481C10.5656 6.92618 10.4858 6.9351 10.4095 6.95193C10.487 6.93221 10.567 6.92188 10.6481 6.92188H16.9281ZM16.9281 9.25186C17.0106 9.25186 17.0903 9.24296 17.1666 9.22615C17.0891 9.24584 17.0091 9.25616 16.9281 9.25616H10.6481C10.567 9.25616 10.487 9.24583 10.4095 9.22611C10.4858 9.24294 10.5656 9.25186 10.6481 9.25186H16.9281Z" fill="black" fill-opacity="0.2"/>
<path d="M16.9281 6.92188C17.0091 6.92188 17.0891 6.9322 17.1666 6.95189C17.0903 6.93508 17.0106 6.92618 16.9281 6.92618H10.6481C10.5656 6.92618 10.4858 6.9351 10.4095 6.95193C10.487 6.93221 10.567 6.92188 10.6481 6.92188H16.9281ZM16.9281 9.25186C17.0106 9.25186 17.0903 9.24296 17.1666 9.22615C17.0891 9.24584 17.0091 9.25616 16.9281 9.25616H10.6481C10.567 9.25616 10.487 9.24583 10.4095 9.22611C10.4858 9.24294 10.5656 9.25186 10.6481 9.25186H16.9281Z" stroke="#B1B1B1"/>
</g>
<g id="Vector_3">
<path d="M5.8125 20.434V20.4297H9.04957V20.434H5.8125Z" fill="#31304D"/>
<path d="M5.8125 20.434V20.4297H9.04957V20.434H5.8125Z" fill="black" fill-opacity="0.2"/>
<path d="M5.8125 20.434V20.4297H9.04957V20.434H5.8125Z" stroke="#B1B1B1"/>
</g>
<g id="Vector_4">
<mask id="path-4-inside-1_1718_3155" fill="white">
<path d="M22.7348 15.2891H21.7891V19.7883C21.7891 19.9217 21.839 20.0491 21.9275 20.1435L25.5593 24L26.2282 23.2898L22.7348 19.5803V15.2891Z"/>
</mask>
<path d="M22.7348 15.2891H21.7891V19.7883C21.7891 19.9217 21.839 20.0491 21.9275 20.1435L25.5593 24L26.2282 23.2898L22.7348 19.5803V15.2891Z" fill="#31304D"/>
<path d="M22.7348 15.2891H21.7891V19.7883C21.7891 19.9217 21.839 20.0491 21.9275 20.1435L25.5593 24L26.2282 23.2898L22.7348 19.5803V15.2891Z" fill="black" fill-opacity="0.2"/>
<path d="M22.7348 15.2891H23.7348V14.2891H22.7348V15.2891ZM21.7891 15.2891V14.2891H20.7891V15.2891H21.7891ZM21.9275 20.1435L21.1981 20.8275L21.1995 20.829L21.9275 20.1435ZM25.5593 24L24.8313 24.6856L25.5593 25.4586L26.2873 24.6856L25.5593 24ZM26.2282 23.2898L26.9562 23.9753L27.6018 23.2898L26.9562 22.6042L26.2282 23.2898ZM22.7348 19.5803H21.7348V19.977L22.0068 20.2658L22.7348 19.5803ZM22.7348 14.2891H21.7891V16.2891H22.7348V14.2891ZM20.7891 15.2891V19.7883H22.7891V15.2891H20.7891ZM20.7891 19.7883C20.7891 20.1695 20.9315 20.5432 21.1981 20.8275L22.657 19.4594C22.7465 19.5549 22.7891 19.6739 22.7891 19.7883H20.7891ZM21.1995 20.829L24.8313 24.6856L26.2873 23.3144L22.6555 19.4579L21.1995 20.829ZM26.2873 24.6856L26.9562 23.9753L25.5002 22.6042L24.8313 23.3144L26.2873 24.6856ZM26.9562 22.6042L23.4628 18.8947L22.0068 20.2658L25.5002 23.9753L26.9562 22.6042ZM23.7348 19.5803V15.2891H21.7348V19.5803H23.7348Z" fill="#B1B1B1" mask="url(#path-4-inside-1_1718_3155)"/>
</g>
</g>
</svg>
