<svg width="30" height="28" viewBox="0 0 30 28" fill="none" xmlns="http://www.w3.org/2000/svg">
<path d="M0.624943 19.378L0.656658 19.877C2.6583 19.7498 4.61901 19.245 6.43881 18.3887L6.44024 18.388C7.07251 18.0881 7.68462 17.7461 8.27259 17.3643L8.28181 17.3583L8.29076 17.3519C9.05379 16.8073 9.86055 16.3293 10.7024 15.923C11.2165 15.6952 11.7427 15.497 12.2785 15.3291C12.3319 15.3146 12.4171 15.291 12.5255 15.2586L12.5255 15.2586L12.533 15.2563L12.6445 15.2209L12.6448 15.2208L12.6581 15.2166C12.7565 15.1855 12.85 15.1559 13.067 15.0981C13.2859 15.0406 13.5806 14.9678 13.9453 14.8916L13.9534 14.8899L13.9615 14.8879C14.76 14.6931 15.5832 14.6249 16.402 14.6855C16.7549 14.7119 17.1042 14.7758 17.4442 14.8763C17.9106 15.0184 18.3312 15.1921 18.7611 15.3697L18.7652 15.3714C19.2436 15.5797 19.7331 15.7608 20.2313 15.9137L20.2313 15.9138L20.2382 15.9158C20.6846 16.0458 21.1428 16.1302 21.6058 16.1675C21.8299 16.1894 21.9918 16.2091 22.1248 16.2647C22.2291 16.3083 22.3111 16.372 22.3702 16.5135C22.4114 16.6341 22.4259 16.7629 22.4124 16.8903C22.3986 17.0212 22.3557 17.1467 22.2874 17.2573L22.2761 17.2755L22.2665 17.2946C22.0231 17.7766 21.6278 18.1588 21.1465 18.3812C20.6653 18.6035 20.125 18.6536 19.6129 18.524L19.59 18.5182L19.5667 18.5146C19.3935 18.4878 19.2386 18.4575 19.0983 18.4242L18.6876 19.3143C18.9362 19.496 19.1967 19.6603 19.4674 19.806L19.4682 19.8064C20.4905 20.3546 21.6338 20.6292 22.7902 20.6036L24.8062 20.6029C24.8062 20.6029 24.8063 20.6029 24.8063 20.6029C24.8456 20.603 24.885 20.6178 24.9165 20.6468C24.9483 20.676 24.9699 20.7179 24.9747 20.7649L24.9746 20.7649L24.9758 20.7748C25.0306 21.2286 24.9531 21.6884 24.7535 22.0969C24.2461 23.094 22.911 23.6989 21.2468 23.459L21.0336 23.4283L20.8648 23.5621C19.5039 24.6412 18.1063 25.6717 16.6748 26.6516L16.6616 26.6606L16.6491 26.6704C16.0487 27.1402 15.3305 27.4261 14.5784 27.4961C14.5391 27.498 14.4999 27.4989 14.4606 27.499C13.9639 27.4989 13.2625 27.3349 11.6927 26.4551C10.8075 25.9579 9.95254 25.4067 9.13253 24.8045L8.93045 24.6562L8.69065 24.7293L4.99836 25.8562C4.97396 25.8636 4.94841 25.865 4.92355 25.8605C4.89869 25.8559 4.87456 25.8454 4.85325 25.829L4.85271 25.8286C2.93336 24.3582 1.43495 22.3909 0.514179 20.1303L0.514112 20.1302C0.502932 20.1027 0.498204 20.0726 0.500613 20.0424C0.503021 20.0123 0.512433 19.9836 0.527526 19.9589C0.542594 19.9342 0.562697 19.9143 0.585538 19.9004L0.325603 19.4752L0.58554 19.9004C0.60834 19.8864 0.633467 19.8786 0.658853 19.8768L0.624943 19.378ZM0.624943 19.378C0.518811 19.3852 0.415895 19.418 0.324719 19.4738C0.233544 19.5295 0.156732 19.6066 0.100645 19.6986C0.0445584 19.7905 0.0108115 19.8948 0.0021987 20.0027C-0.00641405 20.1105 0.0103555 20.219 0.0511184 20.3189M0.624943 19.378C2.56361 19.2548 4.46287 18.7659 6.22592 17.9363C6.83813 17.6458 7.43087 17.3147 8.00029 16.9449C8.78859 16.3823 9.62228 15.8886 10.4924 15.4691L0.0511184 20.3189M0.0511184 20.3189C1.00513 22.6611 2.55809 24.7006 4.54864 26.2255C4.6325 26.2899 4.73008 26.3333 4.83348 26.3523C4.93689 26.3712 5.04323 26.3651 5.14389 26.3345L0.0511184 20.3189ZM9.0602 24.3093L9.06026 24.3093C9.94855 24.98 10.8801 25.5894 11.8485 26.1334L11.8491 26.1337C12.7344 26.6295 13.3235 26.885 13.7363 27.0133C14.1703 27.1482 14.4082 27.1417 14.5679 27.1337L14.5825 27.1329L14.5971 27.1313C15.297 27.0547 15.96 26.7776 16.5094 26.3334C18.0095 25.306 19.4721 24.2231 20.8944 23.0868L20.8947 23.0865C20.9136 23.0713 20.935 23.061 20.9572 23.0555C20.9794 23.0501 21.0024 23.0497 21.0247 23.0541L21.0262 23.0545C21.7405 23.1957 22.4497 23.1689 23.0498 22.9884C23.6427 22.8102 24.1819 22.4632 24.4564 21.9221L24.4566 21.9216C24.5092 21.8178 24.5509 21.7088 24.5814 21.5965L24.7526 20.9656H24.0989H22.8005V20.9655L22.7892 20.9658C21.6226 20.9922 20.4673 20.7252 19.4256 20.1881C18.3838 19.651 17.4875 18.86 16.8168 17.8846L16.68 17.6857L16.4391 17.6691C16.1295 17.6478 15.8188 17.6481 15.5093 17.6698L15.5077 17.67C15.3809 17.6793 15.273 17.6902 15.1973 17.6994C15.1556 17.7041 15.1125 17.6921 15.0774 17.6638L14.7635 18.053L15.0774 17.6638C15.0417 17.635 15.0168 17.5912 15.011 17.5408C15.0053 17.4903 15.0197 17.4406 15.0491 17.4029C15.0782 17.3655 15.1189 17.3436 15.1609 17.3386L15.1614 17.3385C15.2339 17.3299 15.3466 17.3184 15.4875 17.3081C15.9239 17.278 16.3622 17.288 16.7969 17.3381L16.7969 17.3381L16.8008 17.3385L16.8079 17.3393C17.2508 17.3972 17.6832 17.5204 18.0917 17.7051L18.0944 17.7063C18.573 17.9193 19.0766 18.0691 19.5928 18.1519C19.8846 18.2245 20.1869 18.2435 20.4855 18.2079L20.5195 18.2038L20.5526 18.1952C21.0719 18.0596 21.5287 17.7488 21.8492 17.316L22.3791 16.6003L21.4922 16.5205C21.0387 16.4797 20.59 16.3948 20.1523 16.2669C19.6435 16.1114 19.1435 15.9271 18.6548 15.715L18.6548 15.7149L18.6475 15.7119C18.2297 15.5383 17.8119 15.3655 17.3494 15.2246L17.3494 15.2245L17.3447 15.2232C17.0247 15.129 16.6957 15.0696 16.3632 15.046L16.3624 15.046C15.5692 14.9909 14.7724 15.0597 13.9998 15.25C13.647 15.3236 13.3611 15.3945 13.1486 15.4501L13.1463 15.4507C12.9502 15.503 12.8561 15.5323 12.7693 15.5592C12.7614 15.5617 12.7535 15.5641 12.7456 15.5666L12.7456 15.5665L12.7413 15.5679L12.6177 15.6074C12.4959 15.6439 12.4067 15.6685 12.3766 15.6761L12.3624 15.6797L12.3486 15.6841C11.8365 15.8466 11.3333 16.0368 10.8412 16.2537L10.8326 16.2575L10.8242 16.2615C10.0021 16.6612 9.21399 17.1292 8.4678 17.6607C7.86134 18.0558 7.22976 18.4093 6.57726 18.7189C5.00619 19.4605 3.32974 19.9438 1.61034 20.1509L0.9091 20.2354L1.22183 20.8687C2.07451 22.5955 3.28662 24.1135 4.77456 25.317L4.98094 25.4839L5.23484 25.4065L8.91682 24.2836L8.91688 24.2836C8.93521 24.278 8.95064 24.2761 8.96264 24.2761C8.99682 24.2761 9.03103 24.2873 9.0602 24.3093Z" fill="#31304D"/>
<path d="M0.624943 19.378L0.656658 19.877C2.6583 19.7498 4.61901 19.245 6.43881 18.3887L6.44024 18.388C7.07251 18.0881 7.68462 17.7461 8.27259 17.3643L8.28181 17.3583L8.29076 17.3519C9.05379 16.8073 9.86055 16.3293 10.7024 15.923C11.2165 15.6952 11.7427 15.497 12.2785 15.3291C12.3319 15.3146 12.4171 15.291 12.5255 15.2586L12.5255 15.2586L12.533 15.2563L12.6445 15.2209L12.6448 15.2208L12.6581 15.2166C12.7565 15.1855 12.85 15.1559 13.067 15.0981C13.2859 15.0406 13.5806 14.9678 13.9453 14.8916L13.9534 14.8899L13.9615 14.8879C14.76 14.6931 15.5832 14.6249 16.402 14.6855C16.7549 14.7119 17.1042 14.7758 17.4442 14.8763C17.9106 15.0184 18.3312 15.1921 18.7611 15.3697L18.7652 15.3714C19.2436 15.5797 19.7331 15.7608 20.2313 15.9137L20.2313 15.9138L20.2382 15.9158C20.6846 16.0458 21.1428 16.1302 21.6058 16.1675C21.8299 16.1894 21.9918 16.2091 22.1248 16.2647C22.2291 16.3083 22.3111 16.372 22.3702 16.5135C22.4114 16.6341 22.4259 16.7629 22.4124 16.8903C22.3986 17.0212 22.3557 17.1467 22.2874 17.2573L22.2761 17.2755L22.2665 17.2946C22.0231 17.7766 21.6278 18.1588 21.1465 18.3812C20.6653 18.6035 20.125 18.6536 19.6129 18.524L19.59 18.5182L19.5667 18.5146C19.3935 18.4878 19.2386 18.4575 19.0983 18.4242L18.6876 19.3143C18.9362 19.496 19.1967 19.6603 19.4674 19.806L19.4682 19.8064C20.4905 20.3546 21.6338 20.6292 22.7902 20.6036L24.8062 20.6029C24.8062 20.6029 24.8063 20.6029 24.8063 20.6029C24.8456 20.603 24.885 20.6178 24.9165 20.6468C24.9483 20.676 24.9699 20.7179 24.9747 20.7649L24.9746 20.7649L24.9758 20.7748C25.0306 21.2286 24.9531 21.6884 24.7535 22.0969C24.2461 23.094 22.911 23.6989 21.2468 23.459L21.0336 23.4283L20.8648 23.5621C19.5039 24.6412 18.1063 25.6717 16.6748 26.6516L16.6616 26.6606L16.6491 26.6704C16.0487 27.1402 15.3305 27.4261 14.5784 27.4961C14.5391 27.498 14.4999 27.4989 14.4606 27.499C13.9639 27.4989 13.2625 27.3349 11.6927 26.4551C10.8075 25.9579 9.95254 25.4067 9.13253 24.8045L8.93045 24.6562L8.69065 24.7293L4.99836 25.8562C4.97396 25.8636 4.94841 25.865 4.92355 25.8605C4.89869 25.8559 4.87456 25.8454 4.85325 25.829L4.85271 25.8286C2.93336 24.3582 1.43495 22.3909 0.514179 20.1303L0.514112 20.1302C0.502932 20.1027 0.498204 20.0726 0.500613 20.0424C0.503021 20.0123 0.512433 19.9836 0.527526 19.9589C0.542594 19.9342 0.562697 19.9143 0.585538 19.9004L0.325603 19.4752L0.58554 19.9004C0.60834 19.8864 0.633467 19.8786 0.658853 19.8768L0.624943 19.378ZM0.624943 19.378C0.518811 19.3852 0.415895 19.418 0.324719 19.4738C0.233544 19.5295 0.156732 19.6066 0.100645 19.6986C0.0445584 19.7905 0.0108115 19.8948 0.0021987 20.0027C-0.00641405 20.1105 0.0103555 20.219 0.0511184 20.3189M0.624943 19.378C2.56361 19.2548 4.46287 18.7659 6.22592 17.9363C6.83813 17.6458 7.43087 17.3147 8.00029 16.9449C8.78859 16.3823 9.62228 15.8886 10.4924 15.4691L0.0511184 20.3189M0.0511184 20.3189C1.00513 22.6611 2.55809 24.7006 4.54864 26.2255C4.6325 26.2899 4.73008 26.3333 4.83348 26.3523C4.93689 26.3712 5.04323 26.3651 5.14389 26.3345L0.0511184 20.3189ZM9.0602 24.3093L9.06026 24.3093C9.94855 24.98 10.8801 25.5894 11.8485 26.1334L11.8491 26.1337C12.7344 26.6295 13.3235 26.885 13.7363 27.0133C14.1703 27.1482 14.4082 27.1417 14.5679 27.1337L14.5825 27.1329L14.5971 27.1313C15.297 27.0547 15.96 26.7776 16.5094 26.3334C18.0095 25.306 19.4721 24.2231 20.8944 23.0868L20.8947 23.0865C20.9136 23.0713 20.935 23.061 20.9572 23.0555C20.9794 23.0501 21.0024 23.0497 21.0247 23.0541L21.0262 23.0545C21.7405 23.1957 22.4497 23.1689 23.0498 22.9884C23.6427 22.8102 24.1819 22.4632 24.4564 21.9221L24.4566 21.9216C24.5092 21.8178 24.5509 21.7088 24.5814 21.5965L24.7526 20.9656H24.0989H22.8005V20.9655L22.7892 20.9658C21.6226 20.9922 20.4673 20.7252 19.4256 20.1881C18.3838 19.651 17.4875 18.86 16.8168 17.8846L16.68 17.6857L16.4391 17.6691C16.1295 17.6478 15.8188 17.6481 15.5093 17.6698L15.5077 17.67C15.3809 17.6793 15.273 17.6902 15.1973 17.6994C15.1556 17.7041 15.1125 17.6921 15.0774 17.6638L14.7635 18.053L15.0774 17.6638C15.0417 17.635 15.0168 17.5912 15.011 17.5408C15.0053 17.4903 15.0197 17.4406 15.0491 17.4029C15.0782 17.3655 15.1189 17.3436 15.1609 17.3386L15.1614 17.3385C15.2339 17.3299 15.3466 17.3184 15.4875 17.3081C15.9239 17.278 16.3622 17.288 16.7969 17.3381L16.7969 17.3381L16.8008 17.3385L16.8079 17.3393C17.2508 17.3972 17.6832 17.5204 18.0917 17.7051L18.0944 17.7063C18.573 17.9193 19.0766 18.0691 19.5928 18.1519C19.8846 18.2245 20.1869 18.2435 20.4855 18.2079L20.5195 18.2038L20.5526 18.1952C21.0719 18.0596 21.5287 17.7488 21.8492 17.316L22.3791 16.6003L21.4922 16.5205C21.0387 16.4797 20.59 16.3948 20.1523 16.2669C19.6435 16.1114 19.1435 15.9271 18.6548 15.715L18.6548 15.7149L18.6475 15.7119C18.2297 15.5383 17.8119 15.3655 17.3494 15.2246L17.3494 15.2245L17.3447 15.2232C17.0247 15.129 16.6957 15.0696 16.3632 15.046L16.3624 15.046C15.5692 14.9909 14.7724 15.0597 13.9998 15.25C13.647 15.3236 13.3611 15.3945 13.1486 15.4501L13.1463 15.4507C12.9502 15.503 12.8561 15.5323 12.7693 15.5592C12.7614 15.5617 12.7535 15.5641 12.7456 15.5666L12.7456 15.5665L12.7413 15.5679L12.6177 15.6074C12.4959 15.6439 12.4067 15.6685 12.3766 15.6761L12.3624 15.6797L12.3486 15.6841C11.8365 15.8466 11.3333 16.0368 10.8412 16.2537L10.8326 16.2575L10.8242 16.2615C10.0021 16.6612 9.21399 17.1292 8.4678 17.6607C7.86134 18.0558 7.22976 18.4093 6.57726 18.7189C5.00619 19.4605 3.32974 19.9438 1.61034 20.1509L0.9091 20.2354L1.22183 20.8687C2.07451 22.5955 3.28662 24.1135 4.77456 25.317L4.98094 25.4839L5.23484 25.4065L8.91682 24.2836L8.91688 24.2836C8.93521 24.278 8.95064 24.2761 8.96264 24.2761C8.99682 24.2761 9.03103 24.2873 9.0602 24.3093Z" fill="black" fill-opacity="0.2"/>
<path d="M0.624943 19.378L0.656658 19.877C2.6583 19.7498 4.61901 19.245 6.43881 18.3887L6.44024 18.388C7.07251 18.0881 7.68462 17.7461 8.27259 17.3643L8.28181 17.3583L8.29076 17.3519C9.05379 16.8073 9.86055 16.3293 10.7024 15.923C11.2165 15.6952 11.7427 15.497 12.2785 15.3291C12.3319 15.3146 12.4171 15.291 12.5255 15.2586L12.5255 15.2586L12.533 15.2563L12.6445 15.2209L12.6448 15.2208L12.6581 15.2166C12.7565 15.1855 12.85 15.1559 13.067 15.0981C13.2859 15.0406 13.5806 14.9678 13.9453 14.8916L13.9534 14.8899L13.9615 14.8879C14.76 14.6931 15.5832 14.6249 16.402 14.6855C16.7549 14.7119 17.1042 14.7758 17.4442 14.8763C17.9106 15.0184 18.3312 15.1921 18.7611 15.3697L18.7652 15.3714C19.2436 15.5797 19.7331 15.7608 20.2313 15.9137L20.2313 15.9138L20.2382 15.9158C20.6846 16.0458 21.1428 16.1302 21.6058 16.1675C21.8299 16.1894 21.9918 16.2091 22.1248 16.2647C22.2291 16.3083 22.3111 16.372 22.3702 16.5135C22.4114 16.6341 22.4259 16.7629 22.4124 16.8903C22.3986 17.0212 22.3557 17.1467 22.2874 17.2573L22.2761 17.2755L22.2665 17.2946C22.0231 17.7766 21.6278 18.1588 21.1465 18.3812C20.6653 18.6035 20.125 18.6536 19.6129 18.524L19.59 18.5182L19.5667 18.5146C19.3935 18.4878 19.2386 18.4575 19.0983 18.4242L18.6876 19.3143C18.9362 19.496 19.1967 19.6603 19.4674 19.806L19.4682 19.8064C20.4905 20.3546 21.6338 20.6292 22.7902 20.6036L24.8062 20.6029C24.8062 20.6029 24.8063 20.6029 24.8063 20.6029C24.8456 20.603 24.885 20.6178 24.9165 20.6468C24.9483 20.676 24.9699 20.7179 24.9747 20.7649L24.9746 20.7649L24.9758 20.7748C25.0306 21.2286 24.9531 21.6884 24.7535 22.0969C24.2461 23.094 22.911 23.6989 21.2468 23.459L21.0336 23.4283L20.8648 23.5621C19.5039 24.6412 18.1063 25.6717 16.6748 26.6516L16.6616 26.6606L16.6491 26.6704C16.0487 27.1402 15.3305 27.4261 14.5784 27.4961C14.5391 27.498 14.4999 27.4989 14.4606 27.499C13.9639 27.4989 13.2625 27.3349 11.6927 26.4551C10.8075 25.9579 9.95254 25.4067 9.13253 24.8045L8.93045 24.6562L8.69065 24.7293L4.99836 25.8562C4.97396 25.8636 4.94841 25.865 4.92355 25.8605C4.89869 25.8559 4.87456 25.8454 4.85325 25.829L4.85271 25.8286C2.93336 24.3582 1.43495 22.3909 0.514179 20.1303L0.514112 20.1302C0.502932 20.1027 0.498204 20.0726 0.500613 20.0424C0.503021 20.0123 0.512433 19.9836 0.527526 19.9589C0.542594 19.9342 0.562697 19.9143 0.585538 19.9004L0.325603 19.4752L0.58554 19.9004C0.60834 19.8864 0.633467 19.8786 0.658853 19.8768L0.624943 19.378ZM0.624943 19.378C0.518811 19.3852 0.415895 19.418 0.324719 19.4738C0.233544 19.5295 0.156732 19.6066 0.100645 19.6986C0.0445584 19.7905 0.0108115 19.8948 0.0021987 20.0027C-0.00641405 20.1105 0.0103555 20.219 0.0511184 20.3189M0.624943 19.378C2.56361 19.2548 4.46287 18.7659 6.22592 17.9363C6.83813 17.6458 7.43087 17.3147 8.00029 16.9449C8.78859 16.3823 9.62228 15.8886 10.4924 15.4691L0.0511184 20.3189M0.0511184 20.3189C1.00513 22.6611 2.55809 24.7006 4.54864 26.2255C4.6325 26.2899 4.73008 26.3333 4.83348 26.3523C4.93689 26.3712 5.04323 26.3651 5.14389 26.3345L0.0511184 20.3189ZM9.0602 24.3093L9.06026 24.3093C9.94855 24.98 10.8801 25.5894 11.8485 26.1334L11.8491 26.1337C12.7344 26.6295 13.3235 26.885 13.7363 27.0133C14.1703 27.1482 14.4082 27.1417 14.5679 27.1337L14.5825 27.1329L14.5971 27.1313C15.297 27.0547 15.96 26.7776 16.5094 26.3334C18.0095 25.306 19.4721 24.2231 20.8944 23.0868L20.8947 23.0865C20.9136 23.0713 20.935 23.061 20.9572 23.0555C20.9794 23.0501 21.0024 23.0497 21.0247 23.0541L21.0262 23.0545C21.7405 23.1957 22.4497 23.1689 23.0498 22.9884C23.6427 22.8102 24.1819 22.4632 24.4564 21.9221L24.4566 21.9216C24.5092 21.8178 24.5509 21.7088 24.5814 21.5965L24.7526 20.9656H24.0989H22.8005V20.9655L22.7892 20.9658C21.6226 20.9922 20.4673 20.7252 19.4256 20.1881C18.3838 19.651 17.4875 18.86 16.8168 17.8846L16.68 17.6857L16.4391 17.6691C16.1295 17.6478 15.8188 17.6481 15.5093 17.6698L15.5077 17.67C15.3809 17.6793 15.273 17.6902 15.1973 17.6994C15.1556 17.7041 15.1125 17.6921 15.0774 17.6638L14.7635 18.053L15.0774 17.6638C15.0417 17.635 15.0168 17.5912 15.011 17.5408C15.0053 17.4903 15.0197 17.4406 15.0491 17.4029C15.0782 17.3655 15.1189 17.3436 15.1609 17.3386L15.1614 17.3385C15.2339 17.3299 15.3466 17.3184 15.4875 17.3081C15.9239 17.278 16.3622 17.288 16.7969 17.3381L16.7969 17.3381L16.8008 17.3385L16.8079 17.3393C17.2508 17.3972 17.6832 17.5204 18.0917 17.7051L18.0944 17.7063C18.573 17.9193 19.0766 18.0691 19.5928 18.1519C19.8846 18.2245 20.1869 18.2435 20.4855 18.2079L20.5195 18.2038L20.5526 18.1952C21.0719 18.0596 21.5287 17.7488 21.8492 17.316L22.3791 16.6003L21.4922 16.5205C21.0387 16.4797 20.59 16.3948 20.1523 16.2669C19.6435 16.1114 19.1435 15.9271 18.6548 15.715L18.6548 15.7149L18.6475 15.7119C18.2297 15.5383 17.8119 15.3655 17.3494 15.2246L17.3494 15.2245L17.3447 15.2232C17.0247 15.129 16.6957 15.0696 16.3632 15.046L16.3624 15.046C15.5692 14.9909 14.7724 15.0597 13.9998 15.25C13.647 15.3236 13.3611 15.3945 13.1486 15.4501L13.1463 15.4507C12.9502 15.503 12.8561 15.5323 12.7693 15.5592C12.7614 15.5617 12.7535 15.5641 12.7456 15.5666L12.7456 15.5665L12.7413 15.5679L12.6177 15.6074C12.4959 15.6439 12.4067 15.6685 12.3766 15.6761L12.3624 15.6797L12.3486 15.6841C11.8365 15.8466 11.3333 16.0368 10.8412 16.2537L10.8326 16.2575L10.8242 16.2615C10.0021 16.6612 9.21399 17.1292 8.4678 17.6607C7.86134 18.0558 7.22976 18.4093 6.57726 18.7189C5.00619 19.4605 3.32974 19.9438 1.61034 20.1509L0.9091 20.2354L1.22183 20.8687C2.07451 22.5955 3.28662 24.1135 4.77456 25.317L4.98094 25.4839L5.23484 25.4065L8.91682 24.2836L8.91688 24.2836C8.93521 24.278 8.95064 24.2761 8.96264 24.2761C8.99682 24.2761 9.03103 24.2873 9.0602 24.3093Z" stroke="#B1B1B1"/>
<path d="M28.6639 19.7983H29.1639V19.2983V1.16959V0.669591H28.6639H6.64686H6.14686V1.16959V18.1988C6.14686 18.2001 6.14669 18.2033 6.14401 18.209C6.14124 18.2149 6.13501 18.2248 6.12188 18.2363L6.45145 18.6124L6.12188 18.2363C6.09405 18.2607 6.04374 18.2836 5.97968 18.2836C5.91562 18.2836 5.86532 18.2607 5.83749 18.2363L5.50866 18.6115L5.83749 18.2363C5.82435 18.2248 5.81812 18.2149 5.81535 18.209C5.81268 18.2033 5.8125 18.2001 5.8125 18.1988V0.584796C5.8125 0.583488 5.81268 0.580294 5.81535 0.574635C5.81812 0.568777 5.82435 0.558805 5.83749 0.547288C5.86531 0.522898 5.91562 0.5 5.97968 0.5H29.331C29.3951 0.5 29.4454 0.522897 29.4732 0.54729C29.4864 0.558804 29.4926 0.568775 29.4954 0.574634C29.498 0.580292 29.4982 0.583487 29.4982 0.584796V19.883C29.4982 19.8844 29.498 19.8876 29.4954 19.8932C29.4926 19.8991 29.4864 19.909 29.4732 19.9206C29.4454 19.9449 29.3951 19.9678 29.331 19.9678H21.7185C21.6544 19.9678 21.6041 19.9449 21.5763 19.9206C21.5632 19.909 21.5569 19.8991 21.5542 19.8932C21.5515 19.8876 21.5513 19.8844 21.5513 19.883C21.5513 19.8817 21.5515 19.8785 21.5542 19.8729C21.5569 19.867 21.5632 19.8571 21.5763 19.8455C21.6041 19.8212 21.6544 19.7983 21.7185 19.7983H28.6639Z" stroke="#B1B1B1"/>
<path d="M15.2298 5.82574V6.32574H15.7298H19.7472H20.2472V5.82574V1.73769V1.23769H19.7472H15.7298H15.2298V1.73769V5.82574ZM20.4168 6.68843H15.0602C15.0181 6.68843 14.9759 6.67148 14.9434 6.63841C14.9106 6.60504 14.8906 6.55797 14.8906 6.50709V1.05634C14.8906 1.00546 14.9106 0.958386 14.9434 0.925021C14.9759 0.891951 15.0181 0.875 15.0602 0.875H20.4168C20.4589 0.875 20.5011 0.891951 20.5336 0.925021C20.5664 0.958386 20.5864 1.00546 20.5864 1.05634V6.50709C20.5864 6.55797 20.5664 6.60504 20.5336 6.63841C20.5011 6.67148 20.4589 6.68843 20.4168 6.68843Z" fill="#31304D"/>
<path d="M15.2298 5.82574V6.32574H15.7298H19.7472H20.2472V5.82574V1.73769V1.23769H19.7472H15.7298H15.2298V1.73769V5.82574ZM20.4168 6.68843H15.0602C15.0181 6.68843 14.9759 6.67148 14.9434 6.63841C14.9106 6.60504 14.8906 6.55797 14.8906 6.50709V1.05634C14.8906 1.00546 14.9106 0.958386 14.9434 0.925021C14.9759 0.891951 15.0181 0.875 15.0602 0.875H20.4168C20.4589 0.875 20.5011 0.891951 20.5336 0.925021C20.5664 0.958386 20.5864 1.00546 20.5864 1.05634V6.50709C20.5864 6.55797 20.5664 6.60504 20.5336 6.63841C20.5011 6.67148 20.4589 6.68843 20.4168 6.68843Z" fill="black" fill-opacity="0.2"/>
<path d="M15.2298 5.82574V6.32574H15.7298H19.7472H20.2472V5.82574V1.73769V1.23769H19.7472H15.7298H15.2298V1.73769V5.82574ZM20.4168 6.68843H15.0602C15.0181 6.68843 14.9759 6.67148 14.9434 6.63841C14.9106 6.60504 14.8906 6.55797 14.8906 6.50709V1.05634C14.8906 1.00546 14.9106 0.958386 14.9434 0.925021C14.9759 0.891951 15.0181 0.875 15.0602 0.875H20.4168C20.4589 0.875 20.5011 0.891951 20.5336 0.925021C20.5664 0.958386 20.5864 1.00546 20.5864 1.05634V6.50709C20.5864 6.55797 20.5664 6.60504 20.5336 6.63841C20.5011 6.67148 20.4589 6.68843 20.4168 6.68843Z" stroke="#B1B1B1"/>
</svg>
