<svg width="35" height="32" viewBox="0 0 35 32" fill="none" xmlns="http://www.w3.org/2000/svg">
<g id="camera" clip-path="url(#clip0_1574_5993)">
<path id="Vector" d="M32.7682 25.5026C32.7682 26.1877 32.4697 26.8448 31.9384 27.3293C31.407 27.8138 30.6863 28.0859 29.9349 28.0859H4.4349C3.68345 28.0859 2.96278 27.8138 2.43143 27.3293C1.90007 26.8448 1.60156 26.1877 1.60156 25.5026V11.2943C1.60156 10.6091 1.90007 9.95205 2.43143 9.46758C2.96278 8.98311 3.68345 8.71094 4.4349 8.71094H10.1016L12.9349 4.83594H21.4349L24.2682 8.71094H29.9349C30.6863 8.71094 31.407 8.98311 31.9384 9.46758C32.4697 9.95205 32.7682 10.6091 32.7682 11.2943V25.5026Z" stroke="black" stroke-width="3" stroke-linecap="round" stroke-linejoin="round"/>
<path id="Vector_2" d="M17.1901 22.9193C20.3197 22.9193 22.8568 20.6061 22.8568 17.7526C22.8568 14.8991 20.3197 12.5859 17.1901 12.5859C14.0605 12.5859 11.5234 14.8991 11.5234 17.7526C11.5234 20.6061 14.0605 22.9193 17.1901 22.9193Z" stroke="black" stroke-width="3" stroke-linecap="round" stroke-linejoin="round"/>
</g>
<defs>
<clipPath id="clip0_1574_5993">
<rect width="34" height="31" fill="white" transform="translate(0.1875 0.960938)"/>
</clipPath>
</defs>
</svg>
