<svg width="28" height="26" viewBox="0 0 28 26" fill="none" xmlns="http://www.w3.org/2000/svg">
<path d="M25.8211 21.2216C25.8211 21.1971 25.8301 21.1812 25.8374 21.1734C25.8382 21.1726 25.8389 21.1719 25.8395 21.1714C25.8402 21.1719 25.8409 21.1726 25.8416 21.1734C25.8489 21.1812 25.858 21.1971 25.858 21.2216V23.2416C25.8527 24.5183 24.8897 25.4981 23.7645 25.5034H2.59225C1.46594 25.5034 0.5 24.5213 0.5 23.2425V5.57332C0.5 4.29456 1.46594 3.3125 2.59225 3.3125H7.68104C7.68203 3.31319 7.68359 3.31442 7.68552 3.31648C7.69282 3.32426 7.70187 3.34012 7.70187 3.36466C7.70187 3.3892 7.69282 3.40507 7.68552 3.41285C7.68359 3.4149 7.68203 3.41614 7.68104 3.41683H2.59225C1.4279 3.41683 0.536899 4.41246 0.536899 5.57332V23.2425C0.536899 24.4034 1.4279 25.399 2.59225 25.399H23.7657C24.9301 25.399 25.8211 24.4034 25.8211 23.2425V21.2216Z" fill="#31304D"/>
<path d="M25.8211 21.2216C25.8211 21.1971 25.8301 21.1812 25.8374 21.1734C25.8382 21.1726 25.8389 21.1719 25.8395 21.1714C25.8402 21.1719 25.8409 21.1726 25.8416 21.1734C25.8489 21.1812 25.858 21.1971 25.858 21.2216V23.2416C25.8527 24.5183 24.8897 25.4981 23.7645 25.5034H2.59225C1.46594 25.5034 0.5 24.5213 0.5 23.2425V5.57332C0.5 4.29456 1.46594 3.3125 2.59225 3.3125H7.68104C7.68203 3.31319 7.68359 3.31442 7.68552 3.31648C7.69282 3.32426 7.70187 3.34012 7.70187 3.36466C7.70187 3.3892 7.69282 3.40507 7.68552 3.41285C7.68359 3.4149 7.68203 3.41614 7.68104 3.41683H2.59225C1.4279 3.41683 0.536899 4.41246 0.536899 5.57332V23.2425C0.536899 24.4034 1.4279 25.399 2.59225 25.399H23.7657C24.9301 25.399 25.8211 24.4034 25.8211 23.2425V21.2216Z" fill="black" fill-opacity="0.2"/>
<path d="M25.8211 21.2216C25.8211 21.1971 25.8301 21.1812 25.8374 21.1734C25.8382 21.1726 25.8389 21.1719 25.8395 21.1714C25.8402 21.1719 25.8409 21.1726 25.8416 21.1734C25.8489 21.1812 25.858 21.1971 25.858 21.2216V23.2416C25.8527 24.5183 24.8897 25.4981 23.7645 25.5034H2.59225C1.46594 25.5034 0.5 24.5213 0.5 23.2425V5.57332C0.5 4.29456 1.46594 3.3125 2.59225 3.3125H7.68104C7.68203 3.31319 7.68359 3.31442 7.68552 3.31648C7.69282 3.32426 7.70187 3.34012 7.70187 3.36466C7.70187 3.3892 7.69282 3.40507 7.68552 3.41285C7.68359 3.4149 7.68203 3.41614 7.68104 3.41683H2.59225C1.4279 3.41683 0.536899 4.41246 0.536899 5.57332V23.2425C0.536899 24.4034 1.4279 25.399 2.59225 25.399H23.7657C24.9301 25.399 25.8211 24.4034 25.8211 23.2425V21.2216Z" stroke="#B1B1B1"/>
<path d="M25.8638 11.4385V11.9385H26.3638H26.4468C27.0004 11.9385 27.5021 12.4261 27.5021 13.095V17.8988C27.5021 18.5677 27.0004 19.0553 26.4468 19.0553H22.2992C20.6002 19.0553 19.17 17.5788 19.17 15.6902V15.2705C19.17 13.3819 20.6002 11.9054 22.2992 11.9054H25.3269H25.8269V11.4054V6.98807V6.48807H25.3269H5.19271C5.19172 6.48738 5.19016 6.48614 5.18823 6.48409C5.18092 6.47631 5.17188 6.46044 5.17188 6.4359C5.17188 6.41136 5.18092 6.3955 5.18823 6.38772C5.19016 6.38566 5.19172 6.38443 5.19271 6.38374H7.04637H7.26276L7.41088 6.22599L12.778 0.509871C12.7821 0.505952 12.7846 0.504891 12.785 0.504718C12.7857 0.504415 12.7858 0.504485 12.7856 0.504485C12.7854 0.504485 12.7855 0.504415 12.7863 0.504718C12.7867 0.504894 12.7892 0.505979 12.7934 0.510022L15.5376 3.42169L15.9022 3.80848L16.266 3.421L19.0034 0.505582L19.0048 0.504085C19.0056 0.503221 19.0064 0.502513 19.007 0.501929C19.0077 0.502512 19.0084 0.503225 19.0092 0.504088L19.0106 0.505579L21.271 2.91301L24.3817 6.22599L24.5299 6.38374H24.7462H25.3269H25.8269V5.88374V5.57453C25.8269 4.41447 24.9371 3.4194 23.7739 3.41804C23.773 3.41735 23.7714 3.41612 23.7695 3.41406C23.7622 3.40628 23.7531 3.39042 23.7531 3.36588C23.7531 3.34134 23.7622 3.32547 23.7695 3.31769C23.7714 3.31566 23.7729 3.31442 23.7739 3.31373C24.8976 3.32107 25.8586 4.30015 25.8638 5.57542V11.4385ZM19.3767 0.991665L19.0122 0.603456L18.6477 0.991665L17.1442 2.59294L16.7532 3.00938L17.2177 3.34181C18.301 4.11695 19.7234 4.11695 20.8067 3.34181L21.2712 3.00938L20.8802 2.59294L19.3767 0.991665ZM17.0879 3.33128L16.7398 3.04834L16.4209 3.36375L16.2757 3.50731L15.933 3.84622L16.2592 4.20112L17.6328 5.69604L17.4696 5.53159L15.7276 3.77571L15.3684 3.41359L15.0135 3.78002L13.313 5.53589L12.4919 6.38374H13.6722H17.1147H18.2647L18.3053 6.42791H18.5249H23.3257H24.481L23.6902 5.58566L21.6164 3.37701L21.2977 3.03762L20.9365 3.33128C19.7977 4.25703 18.2267 4.25703 17.0879 3.33128ZM10.394 5.58566L9.56894 6.46434L10.7737 6.42768L12.2253 6.38351L12.4301 6.37728L12.5716 6.22917L14.9565 3.73339L15.2837 3.39098L14.9595 3.04571L14.2337 2.27268L13.8692 1.88447L13.5047 2.27268L10.394 5.58566ZM13.1553 0.991665L12.7908 0.603456L12.4263 0.991665L8.15427 5.54149L7.36344 6.38374H8.51877H9.28608H9.50247L9.65058 6.22599L13.539 2.08477L13.8603 1.74252L13.539 1.40027L13.1553 0.991665ZM26.4468 18.951C27.0384 18.951 27.4652 18.4498 27.4652 17.8988V13.0619C27.4652 12.5109 27.0384 12.0097 26.4468 12.0097H22.2992C20.5622 12.0097 19.2069 13.4998 19.2069 15.2705V15.6902C19.2069 16.5452 19.5255 17.371 20.1017 17.9846C20.6788 18.5993 21.4685 18.951 22.2992 18.951H26.4468Z" fill="#31304D"/>
<path d="M25.8638 11.4385V11.9385H26.3638H26.4468C27.0004 11.9385 27.5021 12.4261 27.5021 13.095V17.8988C27.5021 18.5677 27.0004 19.0553 26.4468 19.0553H22.2992C20.6002 19.0553 19.17 17.5788 19.17 15.6902V15.2705C19.17 13.3819 20.6002 11.9054 22.2992 11.9054H25.3269H25.8269V11.4054V6.98807V6.48807H25.3269H5.19271C5.19172 6.48738 5.19016 6.48614 5.18823 6.48409C5.18092 6.47631 5.17188 6.46044 5.17188 6.4359C5.17188 6.41136 5.18092 6.3955 5.18823 6.38772C5.19016 6.38566 5.19172 6.38443 5.19271 6.38374H7.04637H7.26276L7.41088 6.22599L12.778 0.509871C12.7821 0.505952 12.7846 0.504891 12.785 0.504718C12.7857 0.504415 12.7858 0.504485 12.7856 0.504485C12.7854 0.504485 12.7855 0.504415 12.7863 0.504718C12.7867 0.504894 12.7892 0.505979 12.7934 0.510022L15.5376 3.42169L15.9022 3.80848L16.266 3.421L19.0034 0.505582L19.0048 0.504085C19.0056 0.503221 19.0064 0.502513 19.007 0.501929C19.0077 0.502512 19.0084 0.503225 19.0092 0.504088L19.0106 0.505579L21.271 2.91301L24.3817 6.22599L24.5299 6.38374H24.7462H25.3269H25.8269V5.88374V5.57453C25.8269 4.41447 24.9371 3.4194 23.7739 3.41804C23.773 3.41735 23.7714 3.41612 23.7695 3.41406C23.7622 3.40628 23.7531 3.39042 23.7531 3.36588C23.7531 3.34134 23.7622 3.32547 23.7695 3.31769C23.7714 3.31566 23.7729 3.31442 23.7739 3.31373C24.8976 3.32107 25.8586 4.30015 25.8638 5.57542V11.4385ZM19.3767 0.991665L19.0122 0.603456L18.6477 0.991665L17.1442 2.59294L16.7532 3.00938L17.2177 3.34181C18.301 4.11695 19.7234 4.11695 20.8067 3.34181L21.2712 3.00938L20.8802 2.59294L19.3767 0.991665ZM17.0879 3.33128L16.7398 3.04834L16.4209 3.36375L16.2757 3.50731L15.933 3.84622L16.2592 4.20112L17.6328 5.69604L17.4696 5.53159L15.7276 3.77571L15.3684 3.41359L15.0135 3.78002L13.313 5.53589L12.4919 6.38374H13.6722H17.1147H18.2647L18.3053 6.42791H18.5249H23.3257H24.481L23.6902 5.58566L21.6164 3.37701L21.2977 3.03762L20.9365 3.33128C19.7977 4.25703 18.2267 4.25703 17.0879 3.33128ZM10.394 5.58566L9.56894 6.46434L10.7737 6.42768L12.2253 6.38351L12.4301 6.37728L12.5716 6.22917L14.9565 3.73339L15.2837 3.39098L14.9595 3.04571L14.2337 2.27268L13.8692 1.88447L13.5047 2.27268L10.394 5.58566ZM13.1553 0.991665L12.7908 0.603456L12.4263 0.991665L8.15427 5.54149L7.36344 6.38374H8.51877H9.28608H9.50247L9.65058 6.22599L13.539 2.08477L13.8603 1.74252L13.539 1.40027L13.1553 0.991665ZM26.4468 18.951C27.0384 18.951 27.4652 18.4498 27.4652 17.8988V13.0619C27.4652 12.5109 27.0384 12.0097 26.4468 12.0097H22.2992C20.5622 12.0097 19.2069 13.4998 19.2069 15.2705V15.6902C19.2069 16.5452 19.5255 17.371 20.1017 17.9846C20.6788 18.5993 21.4685 18.951 22.2992 18.951H26.4468Z" fill="black" fill-opacity="0.2"/>
<path d="M25.8638 11.4385V11.9385H26.3638H26.4468C27.0004 11.9385 27.5021 12.4261 27.5021 13.095V17.8988C27.5021 18.5677 27.0004 19.0553 26.4468 19.0553H22.2992C20.6002 19.0553 19.17 17.5788 19.17 15.6902V15.2705C19.17 13.3819 20.6002 11.9054 22.2992 11.9054H25.3269H25.8269V11.4054V6.98807V6.48807H25.3269H5.19271C5.19172 6.48738 5.19016 6.48614 5.18823 6.48409C5.18092 6.47631 5.17188 6.46044 5.17188 6.4359C5.17188 6.41136 5.18092 6.3955 5.18823 6.38772C5.19016 6.38566 5.19172 6.38443 5.19271 6.38374H7.04637H7.26276L7.41088 6.22599L12.778 0.509871C12.7821 0.505952 12.7846 0.504891 12.785 0.504718C12.7857 0.504415 12.7858 0.504485 12.7856 0.504485C12.7854 0.504485 12.7855 0.504415 12.7863 0.504718C12.7867 0.504894 12.7892 0.505979 12.7934 0.510022L15.5376 3.42169L15.9022 3.80848L16.266 3.421L19.0034 0.505582L19.0048 0.504085C19.0056 0.503221 19.0064 0.502513 19.007 0.501929C19.0077 0.502512 19.0084 0.503225 19.0092 0.504088L19.0106 0.505579L21.271 2.91301L24.3817 6.22599L24.5299 6.38374H24.7462H25.3269H25.8269V5.88374V5.57453C25.8269 4.41447 24.9371 3.4194 23.7739 3.41804C23.773 3.41735 23.7714 3.41612 23.7695 3.41406C23.7622 3.40628 23.7531 3.39042 23.7531 3.36588C23.7531 3.34134 23.7622 3.32547 23.7695 3.31769C23.7714 3.31566 23.7729 3.31442 23.7739 3.31373C24.8976 3.32107 25.8586 4.30015 25.8638 5.57542V11.4385ZM19.3767 0.991665L19.0122 0.603456L18.6477 0.991665L17.1442 2.59294L16.7532 3.00938L17.2177 3.34181C18.301 4.11695 19.7234 4.11695 20.8067 3.34181L21.2712 3.00938L20.8802 2.59294L19.3767 0.991665ZM17.0879 3.33128L16.7398 3.04834L16.4209 3.36375L16.2757 3.50731L15.933 3.84622L16.2592 4.20112L17.6328 5.69604L17.4696 5.53159L15.7276 3.77571L15.3684 3.41359L15.0135 3.78002L13.313 5.53589L12.4919 6.38374H13.6722H17.1147H18.2647L18.3053 6.42791H18.5249H23.3257H24.481L23.6902 5.58566L21.6164 3.37701L21.2977 3.03762L20.9365 3.33128C19.7977 4.25703 18.2267 4.25703 17.0879 3.33128ZM10.394 5.58566L9.56894 6.46434L10.7737 6.42768L12.2253 6.38351L12.4301 6.37728L12.5716 6.22917L14.9565 3.73339L15.2837 3.39098L14.9595 3.04571L14.2337 2.27268L13.8692 1.88447L13.5047 2.27268L10.394 5.58566ZM13.1553 0.991665L12.7908 0.603456L12.4263 0.991665L8.15427 5.54149L7.36344 6.38374H8.51877H9.28608H9.50247L9.65058 6.22599L13.539 2.08477L13.8603 1.74252L13.539 1.40027L13.1553 0.991665ZM26.4468 18.951C27.0384 18.951 27.4652 18.4498 27.4652 17.8988V13.0619C27.4652 12.5109 27.0384 12.0097 26.4468 12.0097H22.2992C20.5622 12.0097 19.2069 13.4998 19.2069 15.2705V15.6902C19.2069 16.5452 19.5255 17.371 20.1017 17.9846C20.6788 18.5993 21.4685 18.951 22.2992 18.951H26.4468Z" stroke="#B1B1B1"/>
<path d="M22.9175 15.5106C22.9175 15.8745 22.648 16.1149 22.3806 16.1149C22.1133 16.1149 21.8438 15.8745 21.8438 15.5106C21.8438 15.1467 22.1133 14.9062 22.3806 14.9062C22.648 14.9062 22.9175 15.1467 22.9175 15.5106Z" fill="#31304D"/>
<path d="M22.9175 15.5106C22.9175 15.8745 22.648 16.1149 22.3806 16.1149C22.1133 16.1149 21.8438 15.8745 21.8438 15.5106C21.8438 15.1467 22.1133 14.9062 22.3806 14.9062C22.648 14.9062 22.9175 15.1467 22.9175 15.5106Z" fill="black" fill-opacity="0.2"/>
<path d="M22.9175 15.5106C22.9175 15.8745 22.648 16.1149 22.3806 16.1149C22.1133 16.1149 21.8438 15.8745 21.8438 15.5106C21.8438 15.1467 22.1133 14.9062 22.3806 14.9062C22.648 14.9062 22.9175 15.1467 22.9175 15.5106Z" stroke="#B1B1B1"/>
</svg>
