<svg width="25" height="25" viewBox="0 0 25 25" fill="none" xmlns="http://www.w3.org/2000/svg">
<g id="phone">
<path id="Vector" d="M22.185 17.881V20.881C22.1861 21.1595 22.1291 21.4352 22.0175 21.6904C21.9059 21.9456 21.7423 22.1746 21.5371 22.3629C21.3318 22.5512 21.0896 22.6945 20.8257 22.7837C20.5619 22.873 20.2824 22.9061 20.005 22.881C16.9278 22.5467 13.972 21.4952 11.375 19.811C8.95882 18.2757 6.91033 16.2272 5.37499 13.811C3.68497 11.2022 2.63323 8.23203 2.30499 5.14103C2.28 4.8645 2.31287 4.58579 2.40149 4.32266C2.49012 4.05952 2.63256 3.81772 2.81976 3.61266C3.00695 3.40759 3.2348 3.24374 3.48878 3.13156C3.74277 3.01937 4.01733 2.9613 4.29499 2.96103H7.29499C7.7803 2.95626 8.25078 3.12811 8.61875 3.44457C8.98672 3.76102 9.22707 4.20048 9.29499 4.68103C9.42161 5.6411 9.65644 6.58376 9.99499 7.49103C10.1295 7.84896 10.1587 8.23795 10.0789 8.61191C9.99914 8.98588 9.81385 9.32915 9.54499 9.60103L8.27499 10.871C9.69855 13.3746 11.7714 15.4475 14.275 16.871L15.545 15.601C15.8169 15.3322 16.1601 15.1469 16.5341 15.0671C16.9081 14.9874 17.2971 15.0165 17.655 15.151C18.5623 15.4896 19.5049 15.7244 20.465 15.851C20.9508 15.9196 21.3944 16.1642 21.7115 16.5385C22.0287 16.9128 22.1972 17.3906 22.185 17.881Z" stroke="white" stroke-width="2" stroke-linecap="round" stroke-linejoin="round"/>
</g>
</svg>
