<svg width="24" height="24" viewBox="0 0 24 24" fill="none" xmlns="http://www.w3.org/2000/svg">
<path d="M21.6272 5.07276C21.1165 4.56177 20.51 4.15641 19.8426 3.87985C19.1751 3.60328 18.4597 3.46094 17.7372 3.46094C17.0147 3.46094 16.2993 3.60328 15.6319 3.87985C14.9644 4.15641 14.358 4.56177 13.8472 5.07276L12.7872 6.13276L11.7272 5.07276C10.6955 4.04107 9.29626 3.46147 7.83723 3.46147C6.3782 3.46147 4.97892 4.04107 3.94723 5.07276C2.91554 6.10446 2.33594 7.50373 2.33594 8.96276C2.33594 10.4218 2.91554 11.8211 3.94723 12.8528L5.00723 13.9128L12.7872 21.6928L20.5672 13.9128L21.6272 12.8528C22.1382 12.342 22.5436 11.7356 22.8201 11.0681C23.0967 10.4007 23.2391 9.68525 23.2391 8.96276C23.2391 8.24028 23.0967 7.52487 22.8201 6.85741C22.5436 6.18995 22.1382 5.58352 21.6272 5.07276Z" stroke="black" stroke-linecap="round" stroke-linejoin="round"/>
</svg>
