<svg width="32" height="32" viewBox="0 0 32 32" fill="none" xmlns="http://www.w3.org/2000/svg">
<path d="M27.7842 6.1491C27.1032 5.46777 26.2946 4.9273 25.4047 4.55855C24.5147 4.1898 23.5609 4 22.5976 4C21.6342 4 20.6804 4.1898 19.7904 4.55855C18.9005 4.9273 18.0919 5.46777 17.4109 6.1491L15.9976 7.56243L14.5842 6.1491C13.2086 4.77351 11.3429 4.00071 9.39755 4.00071C7.45218 4.00071 5.58648 4.77351 4.21089 6.1491C2.8353 7.52469 2.0625 9.39039 2.0625 11.3358C2.0625 13.2811 2.8353 15.1468 4.21089 16.5224L5.62422 17.9358L15.9976 28.3091L26.3709 17.9358L27.7842 16.5224C28.4655 15.8414 29.006 15.0329 29.3748 14.1429C29.7435 13.253 29.9333 12.2991 29.9333 11.3358C29.9333 10.3725 29.7435 9.41857 29.3748 8.52863C29.006 7.63868 28.4655 6.83011 27.7842 6.1491Z" stroke="currentColor" stroke-width="2" stroke-linecap="round" stroke-linejoin="round"/>
</svg>
