<svg width="37.000000" height="37.000000" viewBox="0 0 37 37" fill="none" xmlns="http://www.w3.org/2000/svg" xmlns:xlink="http://www.w3.org/1999/xlink">
	<defs>
		<clipPath id="clip618_1734">
			<rect id="google 1" width="37.000000" height="37.000000" fill="white" fill-opacity="0"/>
		</clipPath>
	</defs>
	<rect id="google 1" width="37.000000" height="37.000000" fill="#FFFFFF" fill-opacity="0"/>
	<g clip-path="url(#clip618_1734)">
		<path id="Vector" d="M37.0566 18.5C37.0566 28.7173 28.7607 37 18.5283 37C8.29492 37 0 28.7173 0 18.5C0 8.28271 8.29492 0 18.5283 0C28.7607 0 37.0566 8.28271 37.0566 18.5Z" fill="#E0E0E0" fill-opacity="1.000000" fill-rule="evenodd"/>
		<path id="Vector" d="M36.7744 18.2188C36.7744 28.2808 28.6055 36.4377 18.5283 36.4377C8.4502 36.4377 0.28125 28.2808 0.28125 18.2188C0.28125 8.15674 8.4502 0 18.5283 0C28.6055 0 36.7744 8.15674 36.7744 18.2188Z" fill="#FFFFFF" fill-opacity="1.000000" fill-rule="evenodd"/>
		<mask id="mask618_1739" mask-type="alpha" maskUnits="userSpaceOnUse" x="6.419922" y="5.960449" width="24.215820" height="24.741699">
			<path id="Vector" d="M30.3545 16.082L18.8096 16.082L18.8096 20.8616L25.4551 20.8616C24.835 23.8982 22.2451 25.6414 18.8096 25.6414C14.7549 25.6414 11.4883 22.3799 11.4883 18.3313C11.4883 14.2827 14.7549 11.0212 18.8096 11.0212C20.5557 11.0212 22.1318 11.6399 23.3711 12.6519L26.9756 9.05322C24.7793 7.14136 21.9629 5.96045 18.8096 5.96045C11.9385 5.96045 6.41992 11.4712 6.41992 18.3313C6.41992 25.1914 11.9385 30.7021 18.8096 30.7021C25.0049 30.7021 30.6357 26.2036 30.6357 18.3313C30.6357 17.6003 30.5234 16.813 30.3545 16.082Z" fill="#000000" fill-opacity="1.000000" fill-rule="nonzero"/>
		</mask>
		<g mask="url(#mask618_1739)">
			<path id="Vector" d="M5.29395 25.6414L5.29395 11.0212L14.8682 18.3313L5.29395 25.6414Z" fill="#FBBC05" fill-opacity="1.000000" fill-rule="nonzero"/>
		</g>
		<mask id="mask618_1743" mask-type="alpha" maskUnits="userSpaceOnUse" x="6.419922" y="5.960449" width="24.215820" height="24.741699">
			<path id="Vector" d="M30.3545 16.082L18.8096 16.082L18.8096 20.8616L25.4551 20.8616C24.835 23.8982 22.2451 25.6414 18.8096 25.6414C14.7549 25.6414 11.4883 22.3799 11.4883 18.3313C11.4883 14.2827 14.7549 11.0212 18.8096 11.0212C20.5557 11.0212 22.1318 11.6399 23.3711 12.6519L26.9756 9.05322C24.7793 7.14136 21.9629 5.96045 18.8096 5.96045C11.9385 5.96045 6.41992 11.4712 6.41992 18.3313C6.41992 25.1914 11.9385 30.7021 18.8096 30.7021C25.0049 30.7021 30.6357 26.2036 30.6357 18.3313C30.6357 17.6003 30.5234 16.813 30.3545 16.082Z" fill="#000000" fill-opacity="1.000000" fill-rule="nonzero"/>
		</mask>
		<g mask="url(#mask618_1743)">
			<path id="Vector" d="M5.29395 11.0212L14.8682 18.3313L18.8096 14.9014L32.3262 12.7083L32.3262 4.83594L5.29395 4.83594L5.29395 11.0212Z" fill="#EA4335" fill-opacity="1.000000" fill-rule="nonzero"/>
		</g>
		<mask id="mask618_1748" mask-type="alpha" maskUnits="userSpaceOnUse" x="6.419922" y="5.960449" width="24.215820" height="24.741699">
			<path id="Vector" d="M30.3545 16.082L18.8096 16.082L18.8096 20.8616L25.4551 20.8616C24.835 23.8982 22.2451 25.6414 18.8096 25.6414C14.7549 25.6414 11.4883 22.3799 11.4883 18.3313C11.4883 14.2827 14.7549 11.0212 18.8096 11.0212C20.5557 11.0212 22.1318 11.6399 23.3711 12.6519L26.9756 9.05322C24.7793 7.14136 21.9629 5.96045 18.8096 5.96045C11.9385 5.96045 6.41992 11.4712 6.41992 18.3313C6.41992 25.1914 11.9385 30.7021 18.8096 30.7021C25.0049 30.7021 30.6357 26.2036 30.6357 18.3313C30.6357 17.6003 30.5234 16.813 30.3545 16.082Z" fill="#000000" fill-opacity="1.000000" fill-rule="nonzero"/>
		</mask>
		<g mask="url(#mask618_1748)">
			<path id="Vector" d="M5.29395 25.6414L22.1885 12.7083L26.6377 13.2705L32.3262 4.83594L32.3262 31.8269L5.29395 31.8269L5.29395 25.6414Z" fill="#34A853" fill-opacity="1.000000" fill-rule="nonzero"/>
		</g>
		<mask id="mask618_1753" mask-type="alpha" maskUnits="userSpaceOnUse" x="6.419922" y="5.960449" width="24.215820" height="24.741699">
			<path id="Vector" d="M30.3545 16.082L18.8096 16.082L18.8096 20.8616L25.4551 20.8616C24.835 23.8982 22.2451 25.6414 18.8096 25.6414C14.7549 25.6414 11.4883 22.3799 11.4883 18.3313C11.4883 14.2827 14.7549 11.0212 18.8096 11.0212C20.5557 11.0212 22.1318 11.6399 23.3711 12.6519L26.9756 9.05322C24.7793 7.14136 21.9629 5.96045 18.8096 5.96045C11.9385 5.96045 6.41992 11.4712 6.41992 18.3313C6.41992 25.1914 11.9385 30.7021 18.8096 30.7021C25.0049 30.7021 30.6357 26.2036 30.6357 18.3313C30.6357 17.6003 30.5234 16.813 30.3545 16.082Z" fill="#000000" fill-opacity="1.000000" fill-rule="nonzero"/>
		</mask>
		<g mask="url(#mask618_1753)">
			<path id="Vector" d="M32.3262 31.8267L14.8682 18.3313L12.6152 16.6443L32.3262 11.0212L32.3262 31.8267Z" fill="#4285F4" fill-opacity="1.000000" fill-rule="nonzero"/>
		</g>
	</g>
</svg>
