<svg width="38" height="15" viewBox="0 0 38 15" fill="none" xmlns="http://www.w3.org/2000/svg">
<g id="Group 49">
<path id="Vector" d="M17.7183 6.58218V11.0592H16.2969V0.000809071H20.0647C20.5146 -0.00900574 20.962 0.0705612 21.3809 0.2349C21.7998 0.39924 22.182 0.645083 22.5052 0.958184C23.1665 1.55327 23.5381 2.40427 23.5242 3.29227C23.5339 3.734 23.4479 4.17259 23.272 4.5779C23.096 4.98321 22.8345 5.34563 22.5052 5.64023C21.8453 6.26923 21.0313 6.58373 20.0647 6.58218H17.7183ZM17.7183 1.3621V5.22397H20.1002C20.629 5.23939 21.1377 5.03281 21.5062 4.65202C22.2523 3.92743 22.2708 2.73264 21.5432 1.98648L21.5062 1.94948C21.3267 1.75766 21.1086 1.60612 20.8662 1.50486C20.6238 1.40361 20.3627 1.35495 20.1002 1.3621H17.7183ZM26.7987 3.24602C27.8501 3.24602 28.678 3.5266 29.2854 4.08777C29.8928 4.64893 30.1965 5.41977 30.1965 6.39564V11.0607H28.8383V10.0093H28.7767C28.1877 10.8742 27.4046 11.3074 26.4287 11.3074C25.5947 11.3074 24.8978 11.0607 24.3367 10.5659C24.0676 10.3388 23.8524 10.0547 23.7068 9.73422C23.5612 9.41369 23.4889 9.06476 23.4949 8.71277C23.4949 7.9296 23.7909 7.30677 24.3829 6.84427C24.9749 6.38177 25.7642 6.14898 26.754 6.14898C27.5973 6.14898 28.2926 6.30314 28.8383 6.61148V6.28618C28.8401 6.04625 28.7882 5.80894 28.6866 5.59158C28.585 5.37421 28.4362 5.18227 28.251 5.02973C27.8751 4.69044 27.3851 4.50545 26.8789 4.51172C26.0865 4.51172 25.4575 4.84627 24.995 5.51535L23.7447 4.72756C24.4307 3.73935 25.4497 3.24602 26.7987 3.24602ZM24.9595 8.7436C24.9588 8.92426 25.0011 9.10249 25.0828 9.26359C25.1646 9.4247 25.2835 9.56404 25.4297 9.67014C25.7442 9.91681 26.1343 10.0494 26.5335 10.0401C27.1333 10.0386 27.7081 9.79973 28.1323 9.37568C28.6025 8.93168 28.8383 8.41368 28.8383 7.81552C28.3943 7.46247 27.7777 7.28518 26.9852 7.28518C26.4087 7.28518 25.9261 7.42393 25.5407 7.70297C25.1538 7.98818 24.9595 8.33197 24.9595 8.7436ZM37.9974 3.49268L33.2537 14.3969H31.7875L33.5481 10.5813L30.4262 3.49268H31.971L34.2265 8.9286H34.2573L36.4511 3.49268H37.9974Z" fill="#5F6368"/>
<path id="Vector_2" d="M13.3441 6.89348C13.3441 6.46027 13.3086 6.0286 13.2346 5.60156H7.24219V8.04819H10.6739C10.6039 8.43897 10.4553 8.81149 10.2373 9.14324C10.0192 9.475 9.73611 9.75909 9.40515 9.97835V11.5678H11.454C12.6534 10.464 13.3441 8.82827 13.3441 6.89348Z" fill="#4285F4"/>
<path id="Vector_3" d="M7.24673 13.1071C8.96106 13.1071 10.4056 12.5444 11.4586 11.5732L9.40969 9.98371C8.83927 10.3707 8.10544 10.5911 7.24673 10.5911C5.58944 10.5911 4.18344 9.47342 3.67931 7.96875H1.57031V9.606C2.09886 10.6585 2.90963 11.5433 3.91203 12.1615C4.91443 12.7798 6.06899 13.1072 7.24673 13.1071Z" fill="#34A853"/>
<path id="Vector_4" d="M3.67755 7.9669C3.41087 7.17791 3.41087 6.32314 3.67755 5.53415V3.89844H1.56701C1.12225 4.78394 0.890625 5.76114 0.890625 6.75206C0.890625 7.74298 1.12225 8.72019 1.56701 9.60569L3.67755 7.9669Z" fill="#FBBC04"/>
<path id="Vector_5" d="M7.24673 2.9148C8.15272 2.90032 9.0281 3.2425 9.6841 3.86755L11.4986 2.05455C10.3479 0.974919 8.82453 0.381692 7.24673 0.398797C6.06899 0.398738 4.91443 0.726128 3.91203 1.34439C2.90963 1.96266 2.09886 2.84745 1.57031 3.89992L3.68085 5.53717C4.18344 4.03096 5.58944 2.9148 7.24673 2.9148Z" fill="#EA4335"/>
</g>
</svg>
