<svg width="34.000000" height="34.000000" viewBox="0 0 34 34" fill="none" xmlns="http://www.w3.org/2000/svg" xmlns:xlink="http://www.w3.org/1999/xlink">
	<defs>
		<clipPath id="clip618_1756">
			<rect id="instagram 1" width="34.000000" height="34.000000" fill="white" fill-opacity="0"/>
		</clipPath>
		<linearGradient id="paint_linear_618_1757_0" x1="3.111006" y1="30.889002" x2="30.889009" y2="3.111000" gradientUnits="userSpaceOnUse">
			<stop stop-color="#FFC107"/>
			<stop offset="0.507000" stop-color="#F44336"/>
			<stop offset="0.990000" stop-color="#9C27B0"/>
		</linearGradient>
		<linearGradient id="paint_linear_618_1758_0" x1="10.990504" y1="23.009502" x2="23.009502" y2="10.990502" gradientUnits="userSpaceOnUse">
			<stop stop-color="#FFC107"/>
			<stop offset="0.507000" stop-color="#F44336"/>
			<stop offset="0.990000" stop-color="#9C27B0"/>
		</linearGradient>
		<linearGradient id="paint_linear_618_1759_0" x1="25.336382" y1="8.663730" x2="26.938633" y2="7.061481" gradientUnits="userSpaceOnUse">
			<stop stop-color="#FFC107"/>
			<stop offset="0.507000" stop-color="#F44336"/>
			<stop offset="0.990000" stop-color="#9C27B0"/>
		</linearGradient>
	</defs>
	<rect id="instagram 1" width="34.000000" height="34.000000" fill="#FFFFFF" fill-opacity="0"/>
	<g clip-path="url(#clip618_1756)">
		<path id="Vector" d="M23.375 0L10.625 0C7.80664 0 5.10449 1.11938 3.1123 3.11206C1.11914 5.10449 0 7.80713 0 10.625L0 23.375C0 26.1929 1.11914 28.8955 3.1123 30.8879C5.10449 32.8806 7.80664 34 10.625 34L23.375 34C26.1934 34 28.8955 32.8806 30.8877 30.8879C32.8809 28.8955 34 26.1929 34 23.375L34 10.625C34 7.80713 32.8809 5.10449 30.8877 3.11206C28.8955 1.11938 26.1934 0 23.375 0ZM30.8125 23.375C30.8125 27.4763 27.4766 30.8125 23.375 30.8125L10.625 30.8125C6.52344 30.8125 3.1875 27.4763 3.1875 23.375L3.1875 10.625C3.1875 6.52368 6.52344 3.1875 10.625 3.1875L23.375 3.1875C27.4766 3.1875 30.8125 6.52368 30.8125 10.625L30.8125 23.375Z" fill="url(#paint_linear_618_1757_0)" fill-opacity="1.000000" fill-rule="nonzero"/>
		<path id="Vector" d="M17 8.5C14.7461 8.5 12.584 9.39551 10.9893 10.9895C9.39551 12.5837 8.5 14.7456 8.5 17C8.5 19.2544 9.39551 21.4163 10.9893 23.0105C12.584 24.6045 14.7461 25.5 17 25.5C19.2539 25.5 21.416 24.6045 23.0107 23.0105C24.6045 21.4163 25.5 19.2544 25.5 17C25.5 14.7456 24.6045 12.5837 23.0107 10.9895C21.416 9.39551 19.2539 8.5 17 8.5ZM17 22.3125C15.5918 22.3108 14.2412 21.7505 13.2451 20.7546C12.249 19.7588 11.6895 18.4084 11.6875 17C11.6875 14.0696 14.0713 11.6875 17 11.6875C19.9287 11.6875 22.3125 14.0696 22.3125 17C22.3125 19.9282 19.9287 22.3125 17 22.3125Z" fill="url(#paint_linear_618_1758_0)" fill-opacity="1.000000" fill-rule="nonzero"/>
		<path id="Vector" d="M27.2705 7.86255C27.2705 8.48804 26.7627 8.99512 26.1377 8.99512C25.5117 8.99512 25.0049 8.48804 25.0049 7.86255C25.0049 7.23706 25.5117 6.72998 26.1377 6.72998C26.7627 6.72998 27.2705 7.23706 27.2705 7.86255Z" fill="url(#paint_linear_618_1759_0)" fill-opacity="1.000000" fill-rule="evenodd"/>
	</g>
</svg>
