<svg width="33" height="33" viewBox="0 0 33 33" fill="none" xmlns="http://www.w3.org/2000/svg">
<g id="instagram">
<path id="Vector" d="M23.375 2.75H9.625C5.82804 2.75 2.75 5.82804 2.75 9.625V23.375C2.75 27.172 5.82804 30.25 9.625 30.25H23.375C27.172 30.25 30.25 27.172 30.25 23.375V9.625C30.25 5.82804 27.172 2.75 23.375 2.75Z" stroke="white" stroke-width="2" stroke-linecap="round" stroke-linejoin="round"/>
<path id="Vector_2" d="M22.0001 15.6337C22.1698 16.7781 21.9743 17.9468 21.4415 18.9736C20.9087 20.0005 20.0657 20.8332 19.0323 21.3533C17.999 21.8734 16.828 22.0544 15.6858 21.8706C14.5436 21.6869 13.4885 21.1476 12.6705 20.3296C11.8525 19.5116 11.3132 18.4564 11.1294 17.3143C10.9456 16.1721 11.1267 15.0011 11.6468 13.9678C12.1669 12.9344 12.9996 12.0914 14.0264 11.5586C15.0533 11.0258 16.222 10.8303 17.3663 11C18.5336 11.1731 19.6143 11.717 20.4487 12.5514C21.2831 13.3858 21.827 14.4665 22.0001 15.6337Z" stroke="white" stroke-width="2" stroke-linecap="round" stroke-linejoin="round"/>
<path id="Vector_3" d="M24.0625 8.9375H24.077" stroke="white" stroke-width="2" stroke-linecap="round" stroke-linejoin="round"/>
</g>
</svg>
