<svg width="23.000000" height="27.000000" viewBox="0 0 32 32" fill="none" xmlns="http://www.w3.org/2000/svg" xmlns:xlink="http://www.w3.org/1999/xlink">
	<defs>
		<clipPath id="clip1120_1530">
			<rect id="login 1" width="32.000000" height="32.000000" fill="white" fill-opacity="0"/>
		</clipPath>
	</defs>
	<rect id="login 1" width="32.000000" height="32.000000" fill="#FFFFFF" fill-opacity="0"/>
	<g clip-path="url(#clip1120_1530)">
		<path id="Vector" d="M28 1L12 1C11.2 1 10.44 1.31 9.87 1.87C9.31 2.44 9 3.2 9 4L9 12C9 12.26 9.1 12.51 9.29 12.7C9.48 12.89 9.73 13 10 13C10.26 13 10.51 12.89 10.7 12.7C10.89 12.51 11 12.26 11 12L11 4C11 3.73 11.1 3.48 11.29 3.29C11.48 3.1 11.73 3 12 3L26.15 3L20.65 5.06C20.46 5.13 20.29 5.26 20.17 5.42C20.06 5.59 20 5.79 20 6L20 26C19.99 26.2 20.06 26.4 20.17 26.57C20.29 26.73 20.45 26.86 20.64 26.93L26.15 29L12 29C11.73 29 11.48 28.89 11.29 28.7C11.1 28.51 11 28.26 11 28L11 20C11 19.73 10.89 19.48 10.7 19.29C10.51 19.1 10.26 19 10 19C9.73 19 9.48 19.1 9.29 19.29C9.1 19.48 9 19.73 9 20L9 28C9 28.79 9.31 29.55 9.87 30.12C10.44 30.68 11.2 31 12 31L28 31C28.79 31 29.55 30.68 30.12 30.12C30.68 29.55 31 28.79 31 28L31 4C31 3.2 30.68 2.44 30.12 1.87C29.55 1.31 28.79 1 28 1ZM22 6.69L29 4.06L29 27.93L22 25.3L22 6.69Z" fill="#FFFFFF" fill-opacity="1.000000" fill-rule="nonzero"/>
		<path id="Vector" d="M12.29 18.29C12.19 18.38 12.12 18.49 12.06 18.61C12.01 18.74 11.98 18.87 11.98 19C11.98 19.13 12.01 19.26 12.06 19.39C12.11 19.51 12.18 19.62 12.28 19.71C12.37 19.81 12.48 19.88 12.6 19.93C12.73 19.98 12.86 20.01 12.99 20.01C13.12 20.01 13.26 19.98 13.38 19.93C13.5 19.87 13.61 19.8 13.7 19.7L16.7 16.7C16.89 16.51 16.99 16.26 16.99 16C16.99 15.73 16.89 15.48 16.7 15.29L13.7 12.29C13.51 12.11 13.26 12.01 13 12.01C12.74 12.01 12.49 12.12 12.3 12.3C12.11 12.49 12.01 12.74 12.01 13C12.01 13.26 12.11 13.51 12.29 13.7L13.58 15L2 15C1.73 15 1.48 15.1 1.29 15.29C1.1 15.48 1 15.73 1 16C1 16.26 1.1 16.51 1.29 16.7C1.48 16.89 1.73 17 2 17L13.58 17L12.29 18.29Z" fill="#FFFFFF" fill-opacity="1.000000" fill-rule="nonzero"/>
	</g>
</svg>
