<svg width="16" height="16" viewBox="0 0 16 16" fill="none" xmlns="http://www.w3.org/2000/svg">
<g clip-path="url(#clip0_4003_2433)">
<path d="M15.3047 7.80469C15.3047 10.2422 13.3359 12.2344 10.875 12.2344C8.4375 12.2344 6.44531 10.2422 6.44531 7.80469C6.44531 5.36719 8.41406 3.375 10.8516 3.375C13.3359 3.375 15.3047 5.36719 15.3047 7.80469Z" fill="#FFB600"/>
<path d="M10.875 3.375C13.3125 3.375 15.3047 5.36719 15.3047 7.80469C15.3047 10.2422 13.3359 12.2344 10.875 12.2344C8.4375 12.2344 6.44531 10.2422 6.44531 7.80469" fill="#F7981D"/>
<path d="M10.875 3.375C13.3125 3.375 15.3047 5.36719 15.3047 7.80469C15.3047 10.2422 13.3359 12.2344 10.875 12.2344" fill="#FF8500"/>
<path d="M4.92188 3.375C2.50781 3.39844 0.539062 5.36719 0.539062 7.80469C0.539062 10.2422 2.50781 12.2344 4.96875 12.2344C6.11719 12.2344 7.14844 11.7891 7.94531 11.0859C8.10937 10.9453 8.25 10.7812 8.39062 10.6172H7.47656C7.35938 10.4766 7.24219 10.3125 7.14844 10.1719H8.71875C8.8125 10.0312 8.90625 9.86719 8.97656 9.70312H6.89062C6.82031 9.5625 6.75 9.39844 6.70312 9.23437H9.14062C9.28125 8.78906 9.375 8.32031 9.375 7.82812C9.375 7.5 9.32812 7.19531 9.28125 6.89062H6.5625C6.58594 6.72656 6.63281 6.58594 6.67969 6.42188H9.11719C9.07031 6.25781 9 6.09375 8.92969 5.95312H6.86719C6.9375 5.78906 7.03125 5.64844 7.125 5.48438H8.69531C8.60156 5.32031 8.48438 5.15625 8.34375 5.01562H7.47656C7.61719 4.85156 7.75781 4.71094 7.92188 4.57031C7.14844 3.84375 6.09375 3.42187 4.94531 3.42187C4.94531 3.375 4.94531 3.375 4.92188 3.375Z" fill="#FF5050"/>
<path d="M0.539062 7.80469C0.539062 10.2422 2.50781 12.2344 4.96875 12.2344C6.11719 12.2344 7.14844 11.7891 7.94531 11.0859C8.10937 10.9453 8.25 10.7813 8.39062 10.6172H7.47656C7.35938 10.4766 7.24219 10.3125 7.14844 10.1719H8.71875C8.8125 10.0312 8.90625 9.86719 8.97656 9.70312H6.89062C6.82031 9.5625 6.75 9.39844 6.70312 9.23438H9.14062C9.28125 8.78906 9.375 8.32031 9.375 7.82812C9.375 7.5 9.32812 7.19531 9.28125 6.89063H6.5625C6.58594 6.72656 6.63281 6.58594 6.67969 6.42188H9.11719C9.07031 6.25781 9 6.09375 8.92969 5.95313H6.86719C6.9375 5.78906 7.03125 5.64844 7.125 5.48438H8.69531C8.60156 5.32031 8.48438 5.15625 8.34375 5.01563H7.47656C7.61719 4.85156 7.75781 4.71094 7.92188 4.57031C7.14844 3.84375 6.09375 3.42188 4.94531 3.42188H4.92188" fill="#E52836"/>
<path d="M4.96875 12.2344C6.11719 12.2344 7.14844 11.7891 7.94531 11.0859C8.10937 10.9453 8.25 10.7813 8.39062 10.6172H7.47656C7.35938 10.4766 7.24219 10.3125 7.14844 10.1719H8.71875C8.8125 10.0312 8.90625 9.86719 8.97656 9.70312H6.89062C6.82031 9.5625 6.75 9.39844 6.70312 9.23438H9.14062C9.28125 8.78906 9.375 8.32031 9.375 7.82812C9.375 7.5 9.32812 7.19531 9.28125 6.89063H6.5625C6.58594 6.72656 6.63281 6.58594 6.67969 6.42188H9.11719C9.07031 6.25781 9 6.09375 8.92969 5.95313H6.86719C6.9375 5.78906 7.03125 5.64844 7.125 5.48438H8.69531C8.60156 5.32031 8.48437 5.15625 8.34375 5.01563H7.47656C7.61719 4.85156 7.75781 4.71094 7.92187 4.57031C7.14844 3.84375 6.09375 3.42188 4.94531 3.42188H4.92188" fill="#CB2026"/>
<path d="M6.53906 8.92969L6.60938 8.53125C6.58594 8.53125 6.53906 8.55469 6.49219 8.55469C6.32813 8.55469 6.30469 8.46094 6.32813 8.41406L6.46875 7.59375H6.72656L6.79688 7.14844H6.5625L6.60938 6.86719H6.14063C6.14063 6.86719 5.85938 8.41406 5.85938 8.60156C5.85938 8.88281 6.02344 9 6.23438 9C6.375 9 6.49219 8.95312 6.53906 8.92969ZM6.70313 8.17969C6.70313 8.83594 7.14844 9 7.52344 9C7.875 9 8.01563 8.92969 8.01563 8.92969L8.10938 8.48438C8.10938 8.48438 7.85156 8.60156 7.61719 8.60156C7.10156 8.60156 7.19531 8.22656 7.19531 8.22656H8.15625C8.15625 8.22656 8.22656 7.92187 8.22656 7.80469C8.22656 7.5 8.0625 7.125 7.54688 7.125C7.05469 7.07812 6.70313 7.59375 6.70313 8.17969ZM7.52344 7.5C7.78125 7.5 7.73438 7.80469 7.73438 7.82812H7.21875C7.21875 7.80469 7.26563 7.5 7.52344 7.5ZM10.5 8.92969L10.5938 8.41406C10.5938 8.41406 10.3594 8.53125 10.1953 8.53125C9.86719 8.53125 9.72656 8.27344 9.72656 7.99219C9.72656 7.42969 10.0078 7.125 10.3359 7.125C10.5703 7.125 10.7578 7.26563 10.7578 7.26563L10.8281 6.77344C10.8281 6.77344 10.5469 6.65625 10.2891 6.65625C9.75 6.65625 9.21094 7.125 9.21094 8.01563C9.21094 8.60156 9.49219 9 10.0547 9C10.2422 9 10.5 8.92969 10.5 8.92969ZM3.96094 7.07812C3.63281 7.07812 3.39844 7.17187 3.39844 7.17187L3.32812 7.57031C3.32812 7.57031 3.53906 7.47656 3.84375 7.47656C4.00781 7.47656 4.14844 7.5 4.14844 7.64062C4.14844 7.73437 4.125 7.75781 4.125 7.75781H3.91406C3.51562 7.75781 3.07031 7.92187 3.07031 8.46094C3.07031 8.88281 3.35156 8.97656 3.51562 8.97656C3.84375 8.97656 3.98438 8.76562 4.00781 8.76562L3.98438 8.95313H4.40625L4.59375 7.66406C4.59375 7.10156 4.125 7.07812 3.96094 7.07812ZM4.05469 8.13281C4.05469 8.20313 4.00781 8.57812 3.72656 8.57812C3.58594 8.57812 3.53906 8.46094 3.53906 8.39062C3.53906 8.27344 3.60938 8.10937 3.96094 8.10937C4.03125 8.13281 4.05469 8.13281 4.05469 8.13281ZM5.03906 8.97656C5.15625 8.97656 5.74219 9 5.74219 8.36719C5.74219 7.78125 5.17969 7.89844 5.17969 7.66406C5.17969 7.54687 5.27344 7.5 5.4375 7.5C5.50781 7.5 5.76563 7.52344 5.76563 7.52344L5.83594 7.10156C5.83594 7.10156 5.67188 7.05469 5.39063 7.05469C5.03906 7.05469 4.6875 7.19531 4.6875 7.66406C4.6875 8.20312 5.27344 8.15625 5.27344 8.36719C5.27344 8.50781 5.10938 8.53125 4.99219 8.53125C4.78125 8.53125 4.57031 8.46094 4.57031 8.46094L4.5 8.88281C4.52344 8.92969 4.64063 8.97656 5.03906 8.97656ZM14.3906 6.70312L14.2969 7.33594C14.2969 7.33594 14.1094 7.10156 13.8516 7.10156C13.4297 7.10156 13.0547 7.61719 13.0547 8.22656C13.0547 8.60156 13.2422 9 13.6406 9C13.9219 9 14.0859 8.8125 14.0859 8.8125L14.0625 8.97656H14.5313L14.8828 6.72656L14.3906 6.70312ZM14.1797 7.94531C14.1797 8.20312 14.0625 8.53125 13.8047 8.53125C13.6406 8.53125 13.5469 8.39062 13.5469 8.15625C13.5469 7.78125 13.7109 7.54687 13.9219 7.54687C14.0859 7.54687 14.1797 7.66406 14.1797 7.94531ZM1.40625 8.95313L1.6875 7.26563L1.73438 8.95313H2.0625L2.67188 7.26563L2.41406 8.95313H2.90625L3.28125 6.70312H2.50781L2.03906 8.08594L2.01563 6.70312H1.33594L0.960938 8.95313H1.40625ZM8.67188 8.95313C8.8125 8.17969 8.83594 7.54687 9.16406 7.66406C9.21094 7.35937 9.28125 7.24219 9.32813 7.125H9.23438C9.02344 7.125 8.85938 7.40625 8.85938 7.40625L8.90625 7.14844H8.46094L8.15625 8.97656H8.67188V8.95313ZM11.5781 7.07812C11.25 7.07812 11.0156 7.17187 11.0156 7.17187L10.9453 7.57031C10.9453 7.57031 11.1563 7.47656 11.4609 7.47656C11.625 7.47656 11.7656 7.5 11.7656 7.64062C11.7656 7.73437 11.7422 7.75781 11.7422 7.75781H11.5313C11.1328 7.75781 10.6875 7.92187 10.6875 8.46094C10.6875 8.88281 10.9688 8.97656 11.1328 8.97656C11.4609 8.97656 11.6016 8.76562 11.625 8.76562L11.6016 8.95313H12.0234L12.2109 7.66406C12.2344 7.10156 11.7422 7.07812 11.5781 7.07812ZM11.6953 8.13281C11.6953 8.20313 11.6484 8.57812 11.3672 8.57812C11.2266 8.57812 11.1797 8.46094 11.1797 8.39062C11.1797 8.27344 11.25 8.10937 11.6016 8.10937C11.6719 8.13281 11.6719 8.13281 11.6953 8.13281ZM12.6094 8.95313C12.75 8.17969 12.7734 7.54687 13.1016 7.66406C13.1484 7.35937 13.2188 7.24219 13.2656 7.125H13.1719C12.9609 7.125 12.7969 7.40625 12.7969 7.40625L12.8438 7.14844H12.3984L12.0938 8.97656H12.6094V8.95313Z" fill="white"/>
<path d="M5.8125 8.60156C5.8125 8.88281 5.97656 9 6.1875 9C6.35156 9 6.49219 8.95312 6.53906 8.92969L6.60938 8.53125C6.58594 8.53125 6.53906 8.55469 6.49219 8.55469C6.32813 8.55469 6.30469 8.46094 6.32813 8.41406L6.46875 7.59375H6.72656L6.79688 7.14844H6.5625L6.60938 6.86719M6.9375 8.17969C6.9375 8.83594 7.14844 9 7.52344 9C7.875 9 8.01563 8.92969 8.01563 8.92969L8.10938 8.48438C8.10938 8.48438 7.85156 8.60156 7.61719 8.60156C7.10156 8.60156 7.19531 8.22656 7.19531 8.22656H8.15625C8.15625 8.22656 8.22656 7.92187 8.22656 7.80469C8.22656 7.5 8.0625 7.125 7.54688 7.125C7.05469 7.07812 6.9375 7.59375 6.9375 8.17969ZM7.52344 7.5C7.78125 7.5 7.82813 7.80469 7.82813 7.82812H7.21875C7.21875 7.80469 7.26563 7.5 7.52344 7.5ZM10.5 8.92969L10.5938 8.41406C10.5938 8.41406 10.3594 8.53125 10.1953 8.53125C9.86719 8.53125 9.72656 8.27344 9.72656 7.99219C9.72656 7.42969 10.0078 7.125 10.3359 7.125C10.5703 7.125 10.7578 7.26563 10.7578 7.26563L10.8281 6.77344C10.8281 6.77344 10.5469 6.65625 10.2891 6.65625C9.75 6.65625 9.44531 7.125 9.44531 8.01563C9.44531 8.60156 9.49219 9 10.0547 9C10.2422 9 10.5 8.92969 10.5 8.92969ZM3.32812 7.59375C3.32812 7.59375 3.53906 7.5 3.84375 7.5C4.00781 7.5 4.14844 7.52344 4.14844 7.66406C4.14844 7.75781 4.125 7.78125 4.125 7.78125H3.91406C3.51562 7.78125 3.07031 7.94531 3.07031 8.48438C3.07031 8.90625 3.35156 9 3.51562 9C3.84375 9 3.98438 8.78906 4.00781 8.78906L3.98438 8.97656H4.40625L4.59375 7.6875C4.59375 7.14844 4.125 7.125 3.9375 7.125M4.28906 8.13281C4.28906 8.20313 4.00781 8.57812 3.72656 8.57812C3.58594 8.57812 3.53906 8.46094 3.53906 8.39062C3.53906 8.27344 3.60938 8.10937 3.96094 8.10937C4.03125 8.13281 4.28906 8.13281 4.28906 8.13281ZM4.52344 8.92969C4.52344 8.92969 4.66406 8.97656 5.0625 8.97656C5.17969 8.97656 5.76563 9 5.76563 8.36719C5.76563 7.78125 5.20313 7.89844 5.20313 7.66406C5.20313 7.54687 5.29688 7.5 5.46094 7.5C5.53125 7.5 5.78906 7.52344 5.78906 7.52344L5.85938 7.10156C5.85938 7.10156 5.69531 7.05469 5.41406 7.05469C5.0625 7.05469 4.94531 7.19531 4.94531 7.66406C4.94531 8.20312 5.29688 8.15625 5.29688 8.36719C5.29688 8.50781 5.13281 8.53125 5.01563 8.53125M14.2969 7.33594C14.2969 7.33594 14.1094 7.10156 13.8516 7.10156C13.4297 7.10156 13.2891 7.61719 13.2891 8.22656C13.2891 8.60156 13.2422 9 13.6406 9C13.9219 9 14.0859 8.8125 14.0859 8.8125L14.0625 8.97656H14.5313L14.8828 6.72656M14.2734 7.94531C14.2734 8.20312 14.0625 8.53125 13.8047 8.53125C13.6406 8.53125 13.5469 8.39062 13.5469 8.15625C13.5469 7.78125 13.7109 7.54687 13.9219 7.54687C14.0859 7.54687 14.2734 7.66406 14.2734 7.94531ZM1.40625 8.95313L1.6875 7.26563L1.73438 8.95313H2.0625L2.67188 7.26563L2.41406 8.95313H2.90625L3.28125 6.70312H2.69531L2.03906 8.08594L2.01563 6.70312H1.75781L0.960938 8.95313H1.40625ZM8.17969 8.95313H8.67188C8.8125 8.17969 8.83594 7.54687 9.16406 7.66406C9.21094 7.35937 9.28125 7.24219 9.32813 7.125H9.23438C9.02344 7.125 8.85938 7.40625 8.85938 7.40625L8.90625 7.14844M10.9453 7.59375C10.9453 7.59375 11.1563 7.5 11.4609 7.5C11.625 7.5 11.7656 7.52344 11.7656 7.66406C11.7656 7.75781 11.7422 7.78125 11.7422 7.78125H11.5313C11.1328 7.78125 10.6875 7.94531 10.6875 8.48438C10.6875 8.90625 10.9688 9 11.1328 9C11.4609 9 11.6016 8.78906 11.625 8.78906L11.6016 8.97656H12.0234L12.2109 7.6875C12.2109 7.14844 11.7422 7.125 11.5547 7.125M11.9063 8.13281C11.9063 8.20313 11.625 8.57812 11.3438 8.57812C11.2031 8.57812 11.1563 8.46094 11.1563 8.39062C11.1563 8.27344 11.2266 8.10937 11.5781 8.10937C11.6719 8.13281 11.9063 8.13281 11.9063 8.13281ZM12.1172 8.95313H12.6094C12.75 8.17969 12.7734 7.54687 13.1016 7.66406C13.1484 7.35937 13.2188 7.24219 13.2656 7.125H13.1719C12.9609 7.125 12.7969 7.40625 12.7969 7.40625L12.8438 7.14844" fill="#DCE5E5"/>
</g>
<defs>
<clipPath id="clip0_4003_2433">
<rect width="15" height="15" fill="white" transform="translate(0.421875 0.304688)"/>
</clipPath>
</defs>
</svg>
