<svg width="39.000000" height="38.000000" viewBox="0 0 39 38" fill="none" xmlns="http://www.w3.org/2000/svg" xmlns:xlink="http://www.w3.org/1999/xlink">
	<defs>
		<clipPath id="clip73_486">
			<rect id="Property 1=Variant2" width="39.000000" height="38.000000" fill="white" fill-opacity="0"/>
		</clipPath>
	</defs>
	<rect id="Property 1=Variant2" width="39.000000" height="38.000000" fill="#FFFFFF" fill-opacity="0"/>
	<g clip-path="url(#clip73_486)">
		<path id="Vector" d="M32 32L32 29C32 27.4087 31.3416 25.8828 30.1694 24.7573C28.9973 23.6323 27.4077 23 25.75 23L13.25 23C11.5923 23 10.0027 23.6323 8.83057 24.7573C7.65845 25.8828 7 27.4087 7 29L7 32" stroke="#C3C3C3" stroke-opacity="1.000000" stroke-width="2.000000" stroke-linejoin="round" stroke-linecap="round"/>
		<path id="Vector" d="M20 17C16.6863 17 14 14.3135 14 11C14 7.68652 16.6863 5 20 5C23.3137 5 26 7.68652 26 11C26 14.3135 23.3137 17 20 17Z" stroke="#C3C3C3" stroke-opacity="1.000000" stroke-width="2.000000" stroke-linejoin="round"/>
	</g>
</svg>
