<svg width="33" height="34" viewBox="0 0 33 34" fill="none" xmlns="http://www.w3.org/2000/svg">
<g id="youtube">
<path id="Vector" d="M30.9926 9.09502C30.8292 8.42268 30.4966 7.80666 30.0282 7.30918C29.5598 6.81169 28.9723 6.45037 28.3251 6.26169C25.9601 5.66669 16.5001 5.66669 16.5001 5.66669C16.5001 5.66669 7.04005 5.66669 4.67505 6.31835C4.02777 6.50703 3.44027 6.86836 2.97191 7.36585C2.50354 7.86333 2.17089 8.47935 2.00755 9.15169C1.57472 11.6246 1.363 14.1331 1.37505 16.6459C1.35963 19.1775 1.57136 21.7052 2.00755 24.1967C2.18762 24.8481 2.52773 25.4407 2.995 25.9172C3.46228 26.3937 4.04093 26.7379 4.67505 26.9167C7.04005 27.5684 16.5001 27.5684 16.5001 27.5684C16.5001 27.5684 25.9601 27.5684 28.3251 26.9167C28.9723 26.728 29.5598 26.3667 30.0282 25.8692C30.4966 25.3717 30.8292 24.7557 30.9926 24.0834C31.422 21.6291 31.6338 19.1397 31.6251 16.6459C31.6405 14.1142 31.4288 11.5865 30.9926 9.09502Z" stroke="white" stroke-width="2" stroke-linecap="round" stroke-linejoin="round"/>
<path id="Vector_2" d="M13.4062 21.2783L21.3125 16.6458L13.4062 12.0133V21.2783Z" stroke="white" stroke-width="2" stroke-linecap="round" stroke-linejoin="round"/>
</g>
</svg>
